M48
; DRILL file {KiCad 6.0.4-6f826c9f35~116~ubuntu20.04.1} date Di 05 Apr 2022 21:11:28
; FORMAT={-:-/ absolute / inch / decimal}
; #@! TF.CreationDate,2022-04-05T21:11:28+02:00
; #@! TF.GenerationSoftware,Kicad,Pcbnew,6.0.4-6f826c9f35~116~ubuntu20.04.1
; #@! TF.FileFunction,Plated,1,4,PTH
FMAT,2
INCH
; #@! TA.AperFunction,Plated,PTH,ViaDrill
T1C0.0157
; #@! TA.AperFunction,Plated,PTH,ComponentDrill
T2C0.0394
; #@! TA.AperFunction,Plated,PTH,ComponentDrill
T3C0.0472
%
G90
G05
T1
X4.3602Y-1.3189
X4.3602Y-1.3681
X4.3602Y-1.7126
X4.3602Y-1.7618
X4.3602Y-2.1063
X4.3602Y-2.1555
X4.3602Y-2.5
X4.3602Y-2.5492
X4.3696Y-2.9917
X4.3701Y-1.4075
X4.3701Y-1.8012
X4.3701Y-2.1949
X4.3701Y-2.2539
X4.3701Y-2.5886
X4.3701Y-2.8937
X4.3701Y-2.9429
X4.3701Y-3.0315
X4.3898Y-1.8701
X4.3996Y-1.4961
X4.4038Y-3.0517
X4.4094Y-2.2933
X4.4193Y-1.063
X4.4193Y-1.1122
X4.4193Y-1.8996
X4.4193Y-3.189
X4.4291Y-2.6181
X4.4291Y-2.6575
X4.439Y-2.6969
X4.439Y-3.0709
X4.4587Y-3.189
X4.4882Y-3.2815
X4.5394Y-3.252
X4.626Y-1.0433
X4.626Y-1.0827
X4.626Y-1.437
X4.626Y-1.4764
X4.626Y-1.8307
X4.626Y-1.8701
X4.626Y-2.2244
X4.626Y-2.2638
X4.626Y-2.6181
X4.626Y-2.6575
X4.6284Y-3.407
X4.6299Y-3.252
X4.6456Y-3.4921
X4.6772Y-3.5206
X4.7008Y-3.6811
X4.7244Y-3.3937
X4.7323Y-3.252
X4.7441Y-1.3189
X4.7441Y-1.3583
X4.7441Y-1.7126
X4.7441Y-1.752
X4.752Y-3.7008
X4.752Y-3.7795
X4.7539Y-2.1063
X4.7539Y-2.1555
X4.7559Y-3.5886
X4.8031Y-3.4409
X4.813Y-3.189
X4.815Y-3.5669
X4.8228Y-1.063
X4.8228Y-1.1122
X4.8228Y-1.4567
X4.8228Y-1.5059
X4.8228Y-1.8504
X4.8228Y-1.8996
X4.8228Y-2.2441
X4.8228Y-2.2933
X4.8228Y-2.6378
X4.8228Y-2.687
X4.8524Y-3.189
X4.8573Y-3.2805
X4.8819Y-3.5206
X4.8898Y-2.5
X4.8898Y-2.5492
X4.8898Y-2.8976
X4.8898Y-2.937
X4.9213Y-3.4921
X4.9331Y-3.248
X4.937Y-3.7795
X4.9449Y-3.6693
X5.0197Y-1.0433
X5.0197Y-1.0827
X5.0197Y-1.437
X5.0197Y-1.4764
X5.0197Y-1.8307
X5.0197Y-1.8701
X5.0197Y-2.2244
X5.0197Y-2.2638
X5.0197Y-2.6181
X5.0197Y-2.6575
X5.0236Y-3.252
X5.0394Y-3.437
X5.0394Y-3.626
X5.0433Y-3.7874
X5.0472Y-3.6772
X5.0689Y-3.2569
X5.126Y-3.3543
X5.1378Y-1.3091
X5.1378Y-1.3583
X5.1378Y-1.7126
X5.1378Y-1.752
X5.1457Y-3.5748
X5.1476Y-2.1063
X5.1476Y-2.1555
X5.1535Y-3.6811
X5.2008Y-3.4331
X5.2067Y-1.063
X5.2067Y-1.1122
X5.2067Y-1.4567
X5.2067Y-1.5059
X5.2067Y-2.2441
X5.2067Y-2.2933
X5.2067Y-2.6378
X5.2067Y-2.687
X5.2067Y-3.189
X5.2126Y-3.252
X5.2126Y-3.7874
X5.2165Y-1.8504
X5.2165Y-1.8996
X5.2461Y-3.189
X5.251Y-3.2962
X5.2756Y-3.5206
X5.2756Y-3.5827
X5.2835Y-2.8976
X5.2835Y-2.937
X5.2874Y-3.6811
X5.2896Y-2.5
X5.2896Y-2.5492
X5.315Y-3.4921
X5.3268Y-3.2677
X5.3425Y-3.7756
X5.3937Y-3.5906
X5.4094Y-3.6772
X5.4134Y-1.0433
X5.4134Y-1.0827
X5.4134Y-1.437
X5.4134Y-1.4764
X5.4134Y-1.8307
X5.4134Y-1.8701
X5.4134Y-2.2244
X5.4134Y-2.2638
X5.4134Y-2.6181
X5.4134Y-2.6575
X5.4173Y-3.252
X5.437Y-3.815
X5.4567Y-3.5551
X5.4626Y-3.2569
X5.4724Y-3.437
X5.5197Y-3.3543
X5.5315Y-1.3189
X5.5315Y-1.3583
X5.5315Y-1.7028
X5.5315Y-1.752
X5.5413Y-2.0965
X5.5413Y-2.1457
X5.563Y-3.5551
X5.6004Y-1.063
X5.6004Y-1.1024
X5.6004Y-1.4567
X5.6004Y-1.5059
X5.6004Y-1.8504
X5.6004Y-1.8996
X5.6004Y-2.2441
X5.6004Y-2.2933
X5.6004Y-3.189
X5.6063Y-3.437
X5.6102Y-2.6378
X5.6102Y-2.687
X5.6142Y-3.252
X5.6142Y-3.8268
X5.6398Y-3.189
X5.6447Y-3.2962
X5.6693Y-2.5
X5.6693Y-2.5492
X5.6693Y-3.5206
X5.6713Y-2.9402
X5.6717Y-2.896
X5.6772Y-3.874
X5.7087Y-3.4921
X5.7126Y-3.5551
X5.7281Y-3.2589
X5.8071Y-1.0433
X5.8071Y-1.0827
X5.8071Y-1.437
X5.8071Y-1.4764
X5.8071Y-1.8307
X5.8071Y-1.8701
X5.8071Y-2.2244
X5.8071Y-2.2638
X5.8071Y-2.6181
X5.8071Y-2.6575
X5.811Y-3.252
X5.815Y-3.8701
X5.8199Y-3.5501
X5.8858Y-3.4449
X5.9055Y-3.376
X5.935Y-1.3189
X5.935Y-1.3583
X5.935Y-1.7126
X5.935Y-1.752
X5.935Y-2.1063
X5.935Y-2.1457
X5.9507Y-2.5
X5.9507Y-2.5492
X5.9547Y-3.2569
X5.9843Y-2.6476
X5.9843Y-2.687
X5.9882Y-3.8622
X5.9941Y-1.063
X5.9941Y-1.1122
X5.9941Y-1.4567
X5.9941Y-1.5059
X5.9941Y-1.8504
X5.9941Y-1.8898
X5.9941Y-3.189
X5.9961Y-3.4449
X6.0039Y-2.2441
X6.0039Y-2.2933
X6.0335Y-3.189
X6.0384Y-3.2962
X6.063Y-3.5206
X6.0688Y-2.8937
X6.0695Y-2.9402
X6.1024Y-3.4921
X6.122Y-3.5866
X6.122Y-3.8583
X6.1319Y-3.2598
X6.1929Y-3.4094
X6.2008Y-1.0433
X6.2008Y-1.0827
X6.2008Y-1.437
X6.2008Y-1.4764
X6.2008Y-1.8307
X6.2008Y-1.8701
X6.2008Y-2.2244
X6.2008Y-2.2638
X6.2008Y-2.6181
X6.2008Y-2.6575
X6.2008Y-3.0118
X6.2087Y-3.4803
X6.2283Y-3.8543
X6.2402Y-3.2087
X6.248Y-3.563
X6.25Y-3.2579
X6.252Y-3.4016
T2
X5.7146Y-3.6752
X5.7146Y-3.7752
X5.8146Y-3.6752
X5.8146Y-3.7752
X5.9146Y-3.6752
X5.9146Y-3.7752
X6.0146Y-3.6752
X6.0146Y-3.7752
X6.1146Y-3.6752
X6.1146Y-3.7752
X6.2146Y-3.6752
X6.2146Y-3.7752
T3
X4.4291Y-1.1811
X4.4291Y-1.5748
X4.4291Y-1.9685
X4.4291Y-2.3622
X4.4291Y-2.7559
X4.6024Y-3.6319
X4.6024Y-3.7697
X4.626Y-1.1811
X4.626Y-1.5748
X4.626Y-1.9685
X4.626Y-2.3622
X4.626Y-2.7559
X4.8228Y-1.1811
X4.8228Y-1.5748
X4.8228Y-1.9685
X4.8228Y-2.3622
X4.8228Y-2.7559
X5.0197Y-1.1811
X5.0197Y-1.5748
X5.0197Y-1.9685
X5.0197Y-2.3622
X5.0197Y-2.7559
X5.2165Y-1.1811
X5.2165Y-1.5748
X5.2165Y-1.9685
X5.2165Y-2.3622
X5.2165Y-2.7559
X5.4134Y-1.1811
X5.4134Y-1.5748
X5.4134Y-1.9685
X5.4134Y-2.3622
X5.4134Y-2.7559
X5.6102Y-1.1811
X5.6102Y-1.5748
X5.6102Y-1.9685
X5.6102Y-2.3622
X5.6102Y-2.7559
X5.8071Y-1.1811
X5.8071Y-1.5748
X5.8071Y-1.9685
X5.8071Y-2.3622
X5.8071Y-2.7559
X6.0039Y-1.1811
X6.0039Y-1.5748
X6.0039Y-1.9685
X6.0039Y-2.3622
X6.0039Y-2.7559
X6.2008Y-1.1811
X6.2008Y-1.5748
X6.2008Y-1.9685
X6.2008Y-2.3622
X6.2008Y-2.7559
T0
M30
