%TF.GenerationSoftware,KiCad,Pcbnew,6.0.4-6f826c9f35~116~ubuntu20.04.1*%
%TF.CreationDate,2022-04-05T21:11:35+02:00*%
%TF.ProjectId,PhasedArray,50686173-6564-4417-9272-61792e6b6963,rev?*%
%TF.SameCoordinates,Original*%
%TF.FileFunction,Soldermask,Top*%
%TF.FilePolarity,Negative*%
%FSLAX46Y46*%
G04 Gerber Fmt 4.6, Leading zero omitted, Abs format (unit mm)*
G04 Created by KiCad (PCBNEW 6.0.4-6f826c9f35~116~ubuntu20.04.1) date 2022-04-05 21:11:35*
%MOMM*%
%LPD*%
G01*
G04 APERTURE LIST*
G04 Aperture macros list*
%AMRoundRect*
0 Rectangle with rounded corners*
0 $1 Rounding radius*
0 $2 $3 $4 $5 $6 $7 $8 $9 X,Y pos of 4 corners*
0 Add a 4 corners polygon primitive as box body*
4,1,4,$2,$3,$4,$5,$6,$7,$8,$9,$2,$3,0*
0 Add four circle primitives for the rounded corners*
1,1,$1+$1,$2,$3*
1,1,$1+$1,$4,$5*
1,1,$1+$1,$6,$7*
1,1,$1+$1,$8,$9*
0 Add four rect primitives between the rounded corners*
20,1,$1+$1,$2,$3,$4,$5,0*
20,1,$1+$1,$4,$5,$6,$7,0*
20,1,$1+$1,$6,$7,$8,$9,0*
20,1,$1+$1,$8,$9,$2,$3,0*%
G04 Aperture macros list end*
%ADD10RoundRect,0.225000X0.225000X0.250000X-0.225000X0.250000X-0.225000X-0.250000X0.225000X-0.250000X0*%
%ADD11RoundRect,0.250000X0.250000X0.475000X-0.250000X0.475000X-0.250000X-0.475000X0.250000X-0.475000X0*%
%ADD12RoundRect,0.135000X0.185000X-0.135000X0.185000X0.135000X-0.185000X0.135000X-0.185000X-0.135000X0*%
%ADD13R,1.981200X0.558800*%
%ADD14RoundRect,0.225000X-0.250000X0.225000X-0.250000X-0.225000X0.250000X-0.225000X0.250000X0.225000X0*%
%ADD15RoundRect,0.100000X-0.100000X0.637500X-0.100000X-0.637500X0.100000X-0.637500X0.100000X0.637500X0*%
%ADD16RoundRect,0.250000X-0.250000X-0.475000X0.250000X-0.475000X0.250000X0.475000X-0.250000X0.475000X0*%
%ADD17RoundRect,0.237500X0.237500X-0.250000X0.237500X0.250000X-0.237500X0.250000X-0.237500X-0.250000X0*%
%ADD18C,1.800000*%
%ADD19R,2.400000X2.400000*%
%ADD20C,2.400000*%
%ADD21R,1.700000X1.700000*%
%ADD22O,1.700000X1.700000*%
G04 APERTURE END LIST*
D10*
%TO.C,C29*%
X125775000Y-68750000D03*
X124225000Y-68750000D03*
%TD*%
D11*
%TO.C,C42*%
X125980000Y-27020000D03*
X124080000Y-27020000D03*
%TD*%
D12*
%TO.C,R3*%
X154000000Y-87610000D03*
X154000000Y-86590000D03*
%TD*%
D13*
%TO.C,U9*%
X132637800Y-71595000D03*
X132637800Y-72865000D03*
X132637800Y-74135000D03*
X132637800Y-75405000D03*
X137362200Y-75405000D03*
X137362200Y-74135000D03*
X137362200Y-72865000D03*
X137362200Y-71595000D03*
%TD*%
D10*
%TO.C,C17*%
X145775000Y-48750000D03*
X144225000Y-48750000D03*
%TD*%
D13*
%TO.C,U6*%
X142412800Y-61595000D03*
X142412800Y-62865000D03*
X142412800Y-64135000D03*
X142412800Y-65405000D03*
X147137200Y-65405000D03*
X147137200Y-64135000D03*
X147137200Y-62865000D03*
X147137200Y-61595000D03*
%TD*%
D14*
%TO.C,C57*%
X118750000Y-83725000D03*
X118750000Y-85275000D03*
%TD*%
D10*
%TO.C,C5*%
X155775000Y-68750000D03*
X154225000Y-68750000D03*
%TD*%
%TO.C,C13*%
X145775000Y-68750000D03*
X144225000Y-68750000D03*
%TD*%
D14*
%TO.C,C54*%
X148750000Y-83725000D03*
X148750000Y-85275000D03*
%TD*%
D13*
%TO.C,U23*%
X112637800Y-51595000D03*
X112637800Y-52865000D03*
X112637800Y-54135000D03*
X112637800Y-55405000D03*
X117362200Y-55405000D03*
X117362200Y-54135000D03*
X117362200Y-52865000D03*
X117362200Y-51595000D03*
%TD*%
D12*
%TO.C,R14*%
X116000000Y-87610000D03*
X116000000Y-86590000D03*
%TD*%
D10*
%TO.C,C19*%
X145775000Y-38750000D03*
X144225000Y-38750000D03*
%TD*%
D11*
%TO.C,C28*%
X125950000Y-67000000D03*
X124050000Y-67000000D03*
%TD*%
%TO.C,C4*%
X155950000Y-67000000D03*
X154050000Y-67000000D03*
%TD*%
D10*
%TO.C,C47*%
X115775000Y-58750000D03*
X114225000Y-58750000D03*
%TD*%
D14*
%TO.C,C56*%
X138750000Y-83725000D03*
X138750000Y-85275000D03*
%TD*%
%TO.C,C55*%
X128750000Y-83725000D03*
X128750000Y-85275000D03*
%TD*%
D11*
%TO.C,C38*%
X145950000Y-27000000D03*
X144050000Y-27000000D03*
%TD*%
D13*
%TO.C,U1*%
X152637800Y-71595000D03*
X152637800Y-72865000D03*
X152637800Y-74135000D03*
X152637800Y-75405000D03*
X157362200Y-75405000D03*
X157362200Y-74135000D03*
X157362200Y-72865000D03*
X157362200Y-71595000D03*
%TD*%
D15*
%TO.C,U27*%
X147275000Y-79387500D03*
X146625000Y-79387500D03*
X145975000Y-79387500D03*
X145325000Y-79387500D03*
X144675000Y-79387500D03*
X144025000Y-79387500D03*
X143375000Y-79387500D03*
X142725000Y-79387500D03*
X142725000Y-85112500D03*
X143375000Y-85112500D03*
X144025000Y-85112500D03*
X144675000Y-85112500D03*
X145325000Y-85112500D03*
X145975000Y-85112500D03*
X146625000Y-85112500D03*
X147275000Y-85112500D03*
%TD*%
D13*
%TO.C,U4*%
X152637800Y-41595000D03*
X152637800Y-42865000D03*
X152637800Y-44135000D03*
X152637800Y-45405000D03*
X157362200Y-45405000D03*
X157362200Y-44135000D03*
X157362200Y-42865000D03*
X157362200Y-41595000D03*
%TD*%
%TO.C,U19*%
X132637800Y-31595000D03*
X132637800Y-32865000D03*
X132637800Y-34135000D03*
X132637800Y-35405000D03*
X137362200Y-35405000D03*
X137362200Y-34135000D03*
X137362200Y-32865000D03*
X137362200Y-31595000D03*
%TD*%
%TO.C,U2*%
X152637800Y-61595000D03*
X152637800Y-62865000D03*
X152637800Y-64135000D03*
X152637800Y-65405000D03*
X157362200Y-65405000D03*
X157362200Y-64135000D03*
X157362200Y-62865000D03*
X157362200Y-61595000D03*
%TD*%
D10*
%TO.C,C27*%
X135750000Y-38750000D03*
X134200000Y-38750000D03*
%TD*%
D13*
%TO.C,U17*%
X152637800Y-31595000D03*
X152637800Y-32865000D03*
X152637800Y-34135000D03*
X152637800Y-35405000D03*
X157362200Y-35405000D03*
X157362200Y-34135000D03*
X157362200Y-32865000D03*
X157362200Y-31595000D03*
%TD*%
D10*
%TO.C,C35*%
X125775000Y-38750000D03*
X124225000Y-38750000D03*
%TD*%
%TO.C,C31*%
X125775000Y-58750000D03*
X124225000Y-58750000D03*
%TD*%
D11*
%TO.C,C10*%
X155950000Y-37000000D03*
X154050000Y-37000000D03*
%TD*%
D12*
%TO.C,R16*%
X115000000Y-87610000D03*
X115000000Y-86590000D03*
%TD*%
D11*
%TO.C,C34*%
X125950000Y-37000000D03*
X124050000Y-37000000D03*
%TD*%
%TO.C,C20*%
X135950000Y-67000000D03*
X134050000Y-67000000D03*
%TD*%
D12*
%TO.C,R13*%
X125000000Y-87610000D03*
X125000000Y-86590000D03*
%TD*%
D11*
%TO.C,C24*%
X135950000Y-47000000D03*
X134050000Y-47000000D03*
%TD*%
D12*
%TO.C,R15*%
X114000000Y-87610000D03*
X114000000Y-86590000D03*
%TD*%
D10*
%TO.C,C23*%
X135775000Y-58770000D03*
X134225000Y-58770000D03*
%TD*%
%TO.C,C7*%
X155775000Y-58750000D03*
X154225000Y-58750000D03*
%TD*%
D16*
%TO.C,C2*%
X121800000Y-95000000D03*
X123700000Y-95000000D03*
%TD*%
D17*
%TO.C,R1*%
X151250000Y-85662500D03*
X151250000Y-83837500D03*
%TD*%
D10*
%TO.C,C43*%
X125805000Y-28770000D03*
X124255000Y-28770000D03*
%TD*%
D13*
%TO.C,U5*%
X142637800Y-71595000D03*
X142637800Y-72865000D03*
X142637800Y-74135000D03*
X142637800Y-75405000D03*
X147362200Y-75405000D03*
X147362200Y-74135000D03*
X147362200Y-72865000D03*
X147362200Y-71595000D03*
%TD*%
D11*
%TO.C,C6*%
X155950000Y-57000000D03*
X154050000Y-57000000D03*
%TD*%
D13*
%TO.C,U21*%
X112637800Y-71595000D03*
X112637800Y-72865000D03*
X112637800Y-74135000D03*
X112637800Y-75405000D03*
X117362200Y-75405000D03*
X117362200Y-74135000D03*
X117362200Y-72865000D03*
X117362200Y-71595000D03*
%TD*%
%TO.C,U12*%
X132637800Y-41595000D03*
X132637800Y-42865000D03*
X132637800Y-44135000D03*
X132637800Y-45405000D03*
X137362200Y-45405000D03*
X137362200Y-44135000D03*
X137362200Y-42865000D03*
X137362200Y-41595000D03*
%TD*%
D12*
%TO.C,R9*%
X134000000Y-87610000D03*
X134000000Y-86590000D03*
%TD*%
%TO.C,R11*%
X126000000Y-87610000D03*
X126000000Y-86590000D03*
%TD*%
D10*
%TO.C,C37*%
X155775000Y-28750000D03*
X154225000Y-28750000D03*
%TD*%
D13*
%TO.C,U22*%
X112637800Y-61595000D03*
X112637800Y-62865000D03*
X112637800Y-64135000D03*
X112637800Y-65405000D03*
X117362200Y-65405000D03*
X117362200Y-64135000D03*
X117362200Y-62865000D03*
X117362200Y-61595000D03*
%TD*%
%TO.C,U16*%
X122637800Y-41595000D03*
X122637800Y-42865000D03*
X122637800Y-44135000D03*
X122637800Y-45405000D03*
X127362200Y-45405000D03*
X127362200Y-44135000D03*
X127362200Y-42865000D03*
X127362200Y-41595000D03*
%TD*%
%TO.C,U18*%
X142637800Y-31595000D03*
X142637800Y-32865000D03*
X142637800Y-34135000D03*
X142637800Y-35405000D03*
X147362200Y-35405000D03*
X147362200Y-34135000D03*
X147362200Y-32865000D03*
X147362200Y-31595000D03*
%TD*%
%TO.C,U24*%
X112662800Y-41595000D03*
X112662800Y-42865000D03*
X112662800Y-44135000D03*
X112662800Y-45405000D03*
X117387200Y-45405000D03*
X117387200Y-44135000D03*
X117387200Y-42865000D03*
X117387200Y-41595000D03*
%TD*%
%TO.C,U11*%
X132637800Y-51595000D03*
X132637800Y-52865000D03*
X132637800Y-54135000D03*
X132637800Y-55405000D03*
X137362200Y-55405000D03*
X137362200Y-54135000D03*
X137362200Y-52865000D03*
X137362200Y-51595000D03*
%TD*%
D10*
%TO.C,C39*%
X145775000Y-28750000D03*
X144225000Y-28750000D03*
%TD*%
D13*
%TO.C,U25*%
X112637800Y-31595000D03*
X112637800Y-32865000D03*
X112637800Y-34135000D03*
X112637800Y-35405000D03*
X117362200Y-35405000D03*
X117362200Y-34135000D03*
X117362200Y-32865000D03*
X117362200Y-31595000D03*
%TD*%
D11*
%TO.C,C26*%
X135950000Y-37000000D03*
X134050000Y-37000000D03*
%TD*%
D15*
%TO.C,U26*%
X157275000Y-79387500D03*
X156625000Y-79387500D03*
X155975000Y-79387500D03*
X155325000Y-79387500D03*
X154675000Y-79387500D03*
X154025000Y-79387500D03*
X153375000Y-79387500D03*
X152725000Y-79387500D03*
X152725000Y-85112500D03*
X153375000Y-85112500D03*
X154025000Y-85112500D03*
X154675000Y-85112500D03*
X155325000Y-85112500D03*
X155975000Y-85112500D03*
X156625000Y-85112500D03*
X157275000Y-85112500D03*
%TD*%
D11*
%TO.C,C16*%
X145950000Y-47000000D03*
X144050000Y-47000000D03*
%TD*%
D14*
%TO.C,C58*%
X158750000Y-83725000D03*
X158750000Y-85275000D03*
%TD*%
D11*
%TO.C,C14*%
X145975000Y-57000000D03*
X144075000Y-57000000D03*
%TD*%
D13*
%TO.C,U3*%
X152637800Y-51595000D03*
X152637800Y-52865000D03*
X152637800Y-54135000D03*
X152637800Y-55405000D03*
X157362200Y-55405000D03*
X157362200Y-54135000D03*
X157362200Y-52865000D03*
X157362200Y-51595000D03*
%TD*%
D12*
%TO.C,R2*%
X156000000Y-87610000D03*
X156000000Y-86590000D03*
%TD*%
D13*
%TO.C,U8*%
X142637800Y-41595000D03*
X142637800Y-42865000D03*
X142637800Y-44135000D03*
X142637800Y-45405000D03*
X147362200Y-45405000D03*
X147362200Y-44135000D03*
X147362200Y-42865000D03*
X147362200Y-41595000D03*
%TD*%
D16*
%TO.C,C3*%
X121800000Y-93000000D03*
X123700000Y-93000000D03*
%TD*%
D12*
%TO.C,R5*%
X146000000Y-87610000D03*
X146000000Y-86590000D03*
%TD*%
D15*
%TO.C,U30*%
X117275000Y-79387500D03*
X116625000Y-79387500D03*
X115975000Y-79387500D03*
X115325000Y-79387500D03*
X114675000Y-79387500D03*
X114025000Y-79387500D03*
X113375000Y-79387500D03*
X112725000Y-79387500D03*
X112725000Y-85112500D03*
X113375000Y-85112500D03*
X114025000Y-85112500D03*
X114675000Y-85112500D03*
X115325000Y-85112500D03*
X115975000Y-85112500D03*
X116625000Y-85112500D03*
X117275000Y-85112500D03*
%TD*%
D11*
%TO.C,C8*%
X155950000Y-47000000D03*
X154050000Y-47000000D03*
%TD*%
%TO.C,C46*%
X115950000Y-57000000D03*
X114050000Y-57000000D03*
%TD*%
%TO.C,C52*%
X115950000Y-27000000D03*
X114050000Y-27000000D03*
%TD*%
D10*
%TO.C,C49*%
X115775000Y-48750000D03*
X114225000Y-48750000D03*
%TD*%
%TO.C,C11*%
X155800000Y-38750000D03*
X154250000Y-38750000D03*
%TD*%
%TO.C,C45*%
X115775000Y-68750000D03*
X114225000Y-68750000D03*
%TD*%
D15*
%TO.C,U29*%
X127275000Y-79387500D03*
X126625000Y-79387500D03*
X125975000Y-79387500D03*
X125325000Y-79387500D03*
X124675000Y-79387500D03*
X124025000Y-79387500D03*
X123375000Y-79387500D03*
X122725000Y-79387500D03*
X122725000Y-85112500D03*
X123375000Y-85112500D03*
X124025000Y-85112500D03*
X124675000Y-85112500D03*
X125325000Y-85112500D03*
X125975000Y-85112500D03*
X126625000Y-85112500D03*
X127275000Y-85112500D03*
%TD*%
D10*
%TO.C,C41*%
X135775000Y-28750000D03*
X134225000Y-28750000D03*
%TD*%
D11*
%TO.C,C12*%
X145950000Y-67000000D03*
X144050000Y-67000000D03*
%TD*%
%TO.C,C40*%
X135950000Y-27000000D03*
X134050000Y-27000000D03*
%TD*%
%TO.C,C22*%
X135950000Y-57020000D03*
X134050000Y-57020000D03*
%TD*%
D13*
%TO.C,U15*%
X122637800Y-51615000D03*
X122637800Y-52885000D03*
X122637800Y-54155000D03*
X122637800Y-55425000D03*
X127362200Y-55425000D03*
X127362200Y-54155000D03*
X127362200Y-52885000D03*
X127362200Y-51615000D03*
%TD*%
%TO.C,U13*%
X122637800Y-71595000D03*
X122637800Y-72865000D03*
X122637800Y-74135000D03*
X122637800Y-75405000D03*
X127362200Y-75405000D03*
X127362200Y-74135000D03*
X127362200Y-72865000D03*
X127362200Y-71595000D03*
%TD*%
D15*
%TO.C,U28*%
X137275000Y-79387500D03*
X136625000Y-79387500D03*
X135975000Y-79387500D03*
X135325000Y-79387500D03*
X134675000Y-79387500D03*
X134025000Y-79387500D03*
X133375000Y-79387500D03*
X132725000Y-79387500D03*
X132725000Y-85112500D03*
X133375000Y-85112500D03*
X134025000Y-85112500D03*
X134675000Y-85112500D03*
X135325000Y-85112500D03*
X135975000Y-85112500D03*
X136625000Y-85112500D03*
X137275000Y-85112500D03*
%TD*%
D11*
%TO.C,C48*%
X115950000Y-47000000D03*
X114050000Y-47000000D03*
%TD*%
%TO.C,C30*%
X125950000Y-57000000D03*
X124050000Y-57000000D03*
%TD*%
D10*
%TO.C,C51*%
X115800000Y-38750000D03*
X114250000Y-38750000D03*
%TD*%
%TO.C,C9*%
X155775000Y-48750000D03*
X154225000Y-48750000D03*
%TD*%
%TO.C,C25*%
X135775000Y-48750000D03*
X134225000Y-48750000D03*
%TD*%
D12*
%TO.C,R6*%
X144000000Y-87610000D03*
X144000000Y-86590000D03*
%TD*%
D13*
%TO.C,U10*%
X132637800Y-61615000D03*
X132637800Y-62885000D03*
X132637800Y-64155000D03*
X132637800Y-65425000D03*
X137362200Y-65425000D03*
X137362200Y-64155000D03*
X137362200Y-62885000D03*
X137362200Y-61615000D03*
%TD*%
D12*
%TO.C,R12*%
X124000000Y-87610000D03*
X124000000Y-86590000D03*
%TD*%
D13*
%TO.C,U20*%
X122667800Y-31615000D03*
X122667800Y-32885000D03*
X122667800Y-34155000D03*
X122667800Y-35425000D03*
X127392200Y-35425000D03*
X127392200Y-34155000D03*
X127392200Y-32885000D03*
X127392200Y-31615000D03*
%TD*%
D12*
%TO.C,R4*%
X155000000Y-87610000D03*
X155000000Y-86590000D03*
%TD*%
D10*
%TO.C,C33*%
X125775000Y-48770000D03*
X124225000Y-48770000D03*
%TD*%
%TO.C,C15*%
X145775000Y-58750000D03*
X144225000Y-58750000D03*
%TD*%
D12*
%TO.C,R7*%
X145000000Y-87610000D03*
X145000000Y-86590000D03*
%TD*%
D16*
%TO.C,C1*%
X121800000Y-97000000D03*
X123700000Y-97000000D03*
%TD*%
D12*
%TO.C,R8*%
X136000000Y-87610000D03*
X136000000Y-86590000D03*
%TD*%
%TO.C,R10*%
X135000000Y-87610000D03*
X135000000Y-86590000D03*
%TD*%
D10*
%TO.C,C53*%
X115775000Y-28750000D03*
X114225000Y-28750000D03*
%TD*%
D13*
%TO.C,U7*%
X142637800Y-51595000D03*
X142637800Y-52865000D03*
X142637800Y-54135000D03*
X142637800Y-55405000D03*
X147362200Y-55405000D03*
X147362200Y-54135000D03*
X147362200Y-52865000D03*
X147362200Y-51595000D03*
%TD*%
D11*
%TO.C,C44*%
X115950000Y-67000000D03*
X114050000Y-67000000D03*
%TD*%
%TO.C,C18*%
X145950000Y-37000000D03*
X144050000Y-37000000D03*
%TD*%
D10*
%TO.C,C21*%
X135775000Y-68750000D03*
X134225000Y-68750000D03*
%TD*%
D11*
%TO.C,C50*%
X115975000Y-37000000D03*
X114075000Y-37000000D03*
%TD*%
%TO.C,C32*%
X125950000Y-47020000D03*
X124050000Y-47020000D03*
%TD*%
D13*
%TO.C,U14*%
X122637800Y-61595000D03*
X122637800Y-62865000D03*
X122637800Y-64135000D03*
X122637800Y-65405000D03*
X127362200Y-65405000D03*
X127362200Y-64135000D03*
X127362200Y-62865000D03*
X127362200Y-61595000D03*
%TD*%
D11*
%TO.C,C36*%
X155950000Y-27000000D03*
X154050000Y-27000000D03*
%TD*%
D18*
%TO.C,LS3*%
X157500000Y-50000000D03*
X152500000Y-50000000D03*
%TD*%
%TO.C,LS25*%
X117500000Y-30000000D03*
X112500000Y-30000000D03*
%TD*%
%TO.C,LS18*%
X147500000Y-30000000D03*
X142500000Y-30000000D03*
%TD*%
%TO.C,LS16*%
X127500000Y-40000000D03*
X122500000Y-40000000D03*
%TD*%
%TO.C,LS23*%
X117500000Y-50000000D03*
X112500000Y-50000000D03*
%TD*%
D19*
%TO.C,J3*%
X116900000Y-95750000D03*
D20*
X116900000Y-92250000D03*
%TD*%
D18*
%TO.C,LS12*%
X137500000Y-40000000D03*
X132500000Y-40000000D03*
%TD*%
%TO.C,LS9*%
X137500000Y-70000000D03*
X132500000Y-70000000D03*
%TD*%
%TO.C,LS24*%
X117500000Y-40000000D03*
X112500000Y-40000000D03*
%TD*%
%TO.C,LS10*%
X137500000Y-60000000D03*
X132500000Y-60000000D03*
%TD*%
%TO.C,LS15*%
X127500000Y-50000000D03*
X122500000Y-50000000D03*
%TD*%
%TO.C,LS22*%
X117500000Y-60000000D03*
X112500000Y-60000000D03*
%TD*%
%TO.C,LS2*%
X157500000Y-60000000D03*
X152500000Y-60000000D03*
%TD*%
%TO.C,LS4*%
X157500000Y-40000000D03*
X152500000Y-40000000D03*
%TD*%
%TO.C,LS8*%
X147500000Y-40000000D03*
X142500000Y-40000000D03*
%TD*%
%TO.C,LS1*%
X157500000Y-70000000D03*
X152500000Y-70000000D03*
%TD*%
%TO.C,LS11*%
X137500000Y-50000000D03*
X132500000Y-50000000D03*
%TD*%
%TO.C,LS20*%
X127500000Y-30000000D03*
X122500000Y-30000000D03*
%TD*%
%TO.C,LS13*%
X127500000Y-70000000D03*
X122500000Y-70000000D03*
%TD*%
%TO.C,LS6*%
X147500000Y-60000000D03*
X142500000Y-60000000D03*
%TD*%
%TO.C,LS19*%
X137500000Y-30000000D03*
X132500000Y-30000000D03*
%TD*%
%TO.C,LS5*%
X147500000Y-70000000D03*
X142500000Y-70000000D03*
%TD*%
%TO.C,LS21*%
X117500000Y-70000000D03*
X112500000Y-70000000D03*
%TD*%
D21*
%TO.C,J2*%
X145150000Y-93350000D03*
D22*
X145150000Y-95890000D03*
X147690000Y-93350000D03*
X147690000Y-95890000D03*
X150230000Y-93350000D03*
X150230000Y-95890000D03*
X152770000Y-93350000D03*
X152770000Y-95890000D03*
X155310000Y-93350000D03*
X155310000Y-95890000D03*
X157850000Y-93350000D03*
X157850000Y-95890000D03*
%TD*%
D18*
%TO.C,LS14*%
X127500000Y-60000000D03*
X122500000Y-60000000D03*
%TD*%
%TO.C,LS7*%
X147500000Y-50000000D03*
X142500000Y-50000000D03*
%TD*%
%TO.C,LS17*%
X157500000Y-30000000D03*
X152500000Y-30000000D03*
%TD*%
M02*
