%TF.GenerationSoftware,KiCad,Pcbnew,6.0.4-6f826c9f35~116~ubuntu20.04.1*%
%TF.CreationDate,2022-04-05T21:11:35+02:00*%
%TF.ProjectId,PhasedArray,50686173-6564-4417-9272-61792e6b6963,rev?*%
%TF.SameCoordinates,Original*%
%TF.FileFunction,Legend,Bot*%
%TF.FilePolarity,Positive*%
%FSLAX46Y46*%
G04 Gerber Fmt 4.6, Leading zero omitted, Abs format (unit mm)*
G04 Created by KiCad (PCBNEW 6.0.4-6f826c9f35~116~ubuntu20.04.1) date 2022-04-05 21:11:35*
%MOMM*%
%LPD*%
G01*
G04 APERTURE LIST*
%ADD10C,0.150000*%
%ADD11C,0.127000*%
%ADD12C,0.120000*%
G04 APERTURE END LIST*
D10*
X147000000Y-83500000D02*
X147000000Y-91000000D01*
X145000000Y-70000000D02*
X145000000Y-77200000D01*
X155000000Y-40000000D02*
X150600000Y-44400000D01*
X155000000Y-60000000D02*
X150600000Y-64400000D01*
X155000000Y-70000000D02*
X155000000Y-77200000D01*
X155000000Y-70000000D02*
X150600000Y-74400000D01*
X155000000Y-50000000D02*
X150600000Y-54400000D01*
X156000000Y-83500000D02*
X156000000Y-91000000D01*
X149250000Y-91000000D02*
X149250000Y-83500000D01*
X155000000Y-30000000D02*
X150600000Y-34400000D01*
X153750000Y-91000000D02*
X153750000Y-83500000D01*
X151500000Y-83500000D02*
X151500000Y-91000000D01*
X146750000Y-91000000D02*
X149250000Y-91000000D01*
X144750000Y-87250000D02*
X158250000Y-87250000D01*
X144750000Y-91000000D02*
X158250000Y-91000000D01*
X158250000Y-91000000D02*
X158250000Y-83500000D01*
X158250000Y-83500000D02*
X144750000Y-83500000D01*
X144750000Y-83500000D02*
X144750000Y-91000000D01*
X135000000Y-70000000D02*
X135000000Y-77200000D01*
X155809523Y-77652380D02*
X155142857Y-78652380D01*
X155142857Y-77652380D02*
X155809523Y-78652380D01*
X154571428Y-77652380D02*
X154476190Y-77652380D01*
X154380952Y-77700000D01*
X154333333Y-77747619D01*
X154285714Y-77842857D01*
X154238095Y-78033333D01*
X154238095Y-78271428D01*
X154285714Y-78461904D01*
X154333333Y-78557142D01*
X154380952Y-78604761D01*
X154476190Y-78652380D01*
X154571428Y-78652380D01*
X154666666Y-78604761D01*
X154714285Y-78557142D01*
X154761904Y-78461904D01*
X154809523Y-78271428D01*
X154809523Y-78033333D01*
X154761904Y-77842857D01*
X154714285Y-77747619D01*
X154666666Y-77700000D01*
X154571428Y-77652380D01*
X146297619Y-86759642D02*
X146297619Y-86140595D01*
X145916666Y-86473928D01*
X145916666Y-86331071D01*
X145869047Y-86235833D01*
X145821428Y-86188214D01*
X145726190Y-86140595D01*
X145488095Y-86140595D01*
X145392857Y-86188214D01*
X145345238Y-86235833D01*
X145297619Y-86331071D01*
X145297619Y-86616785D01*
X145345238Y-86712023D01*
X145392857Y-86759642D01*
X146297619Y-85854880D02*
X145297619Y-85521547D01*
X146297619Y-85188214D01*
X146297619Y-84950119D02*
X146297619Y-84331071D01*
X145916666Y-84664404D01*
X145916666Y-84521547D01*
X145869047Y-84426309D01*
X145821428Y-84378690D01*
X145726190Y-84331071D01*
X145488095Y-84331071D01*
X145392857Y-84378690D01*
X145345238Y-84426309D01*
X145297619Y-84521547D01*
X145297619Y-84807261D01*
X145345238Y-84902500D01*
X145392857Y-84950119D01*
X148500000Y-89890595D02*
X148547619Y-89985833D01*
X148547619Y-90128690D01*
X148500000Y-90271547D01*
X148404761Y-90366785D01*
X148309523Y-90414404D01*
X148119047Y-90462023D01*
X147976190Y-90462023D01*
X147785714Y-90414404D01*
X147690476Y-90366785D01*
X147595238Y-90271547D01*
X147547619Y-90128690D01*
X147547619Y-90033452D01*
X147595238Y-89890595D01*
X147642857Y-89842976D01*
X147976190Y-89842976D01*
X147976190Y-90033452D01*
X147547619Y-89414404D02*
X148547619Y-89414404D01*
X147547619Y-88842976D01*
X148547619Y-88842976D01*
X147547619Y-88366785D02*
X148547619Y-88366785D01*
X148547619Y-88128690D01*
X148500000Y-87985833D01*
X148404761Y-87890595D01*
X148309523Y-87842976D01*
X148119047Y-87795357D01*
X147976190Y-87795357D01*
X147785714Y-87842976D01*
X147690476Y-87890595D01*
X147595238Y-87985833D01*
X147547619Y-88128690D01*
X147547619Y-88366785D01*
X150476190Y-35176190D02*
X150476190Y-35652380D01*
X150809523Y-34652380D02*
X150476190Y-35176190D01*
X150142857Y-34652380D01*
X149380952Y-34985714D02*
X149380952Y-35652380D01*
X149619047Y-34604761D02*
X149857142Y-35319047D01*
X149238095Y-35319047D01*
X152047619Y-86664404D02*
X153047619Y-86664404D01*
X153047619Y-86426309D01*
X153000000Y-86283452D01*
X152904761Y-86188214D01*
X152809523Y-86140595D01*
X152619047Y-86092976D01*
X152476190Y-86092976D01*
X152285714Y-86140595D01*
X152190476Y-86188214D01*
X152095238Y-86283452D01*
X152047619Y-86426309D01*
X152047619Y-86664404D01*
X152952380Y-85712023D02*
X153000000Y-85664404D01*
X153047619Y-85569166D01*
X153047619Y-85331071D01*
X153000000Y-85235833D01*
X152952380Y-85188214D01*
X152857142Y-85140595D01*
X152761904Y-85140595D01*
X152619047Y-85188214D01*
X152047619Y-85759642D01*
X152047619Y-85140595D01*
X156547619Y-90414404D02*
X157547619Y-90414404D01*
X157547619Y-90176309D01*
X157500000Y-90033452D01*
X157404761Y-89938214D01*
X157309523Y-89890595D01*
X157119047Y-89842976D01*
X156976190Y-89842976D01*
X156785714Y-89890595D01*
X156690476Y-89938214D01*
X156595238Y-90033452D01*
X156547619Y-90176309D01*
X156547619Y-90414404D01*
X157214285Y-88985833D02*
X156547619Y-88985833D01*
X157595238Y-89223928D02*
X156880952Y-89462023D01*
X156880952Y-88842976D01*
X152047619Y-89938214D02*
X152047619Y-90414404D01*
X153047619Y-90414404D01*
X152047619Y-89604880D02*
X153047619Y-89604880D01*
X153047619Y-89366785D01*
X153000000Y-89223928D01*
X152904761Y-89128690D01*
X152809523Y-89081071D01*
X152619047Y-89033452D01*
X152476190Y-89033452D01*
X152285714Y-89081071D01*
X152190476Y-89128690D01*
X152095238Y-89223928D01*
X152047619Y-89366785D01*
X152047619Y-89604880D01*
X149797619Y-89842976D02*
X150273809Y-90176309D01*
X149797619Y-90414404D02*
X150797619Y-90414404D01*
X150797619Y-90033452D01*
X150750000Y-89938214D01*
X150702380Y-89890595D01*
X150607142Y-89842976D01*
X150464285Y-89842976D01*
X150369047Y-89890595D01*
X150321428Y-89938214D01*
X150273809Y-90033452D01*
X150273809Y-90414404D01*
X150321428Y-89414404D02*
X150321428Y-89081071D01*
X149797619Y-88938214D02*
X149797619Y-89414404D01*
X150797619Y-89414404D01*
X150797619Y-88938214D01*
X149845238Y-88557261D02*
X149797619Y-88414404D01*
X149797619Y-88176309D01*
X149845238Y-88081071D01*
X149892857Y-88033452D01*
X149988095Y-87985833D01*
X150083333Y-87985833D01*
X150178571Y-88033452D01*
X150226190Y-88081071D01*
X150273809Y-88176309D01*
X150321428Y-88366785D01*
X150369047Y-88462023D01*
X150416666Y-88509642D01*
X150511904Y-88557261D01*
X150607142Y-88557261D01*
X150702380Y-88509642D01*
X150750000Y-88462023D01*
X150797619Y-88366785D01*
X150797619Y-88128690D01*
X150750000Y-87985833D01*
X150476190Y-45176190D02*
X150476190Y-45652380D01*
X150809523Y-44652380D02*
X150476190Y-45176190D01*
X150142857Y-44652380D01*
X149904761Y-44652380D02*
X149285714Y-44652380D01*
X149619047Y-45033333D01*
X149476190Y-45033333D01*
X149380952Y-45080952D01*
X149333333Y-45128571D01*
X149285714Y-45223809D01*
X149285714Y-45461904D01*
X149333333Y-45557142D01*
X149380952Y-45604761D01*
X149476190Y-45652380D01*
X149761904Y-45652380D01*
X149857142Y-45604761D01*
X149904761Y-45557142D01*
X150476190Y-65176190D02*
X150476190Y-65652380D01*
X150809523Y-64652380D02*
X150476190Y-65176190D01*
X150142857Y-64652380D01*
X149285714Y-65652380D02*
X149857142Y-65652380D01*
X149571428Y-65652380D02*
X149571428Y-64652380D01*
X149666666Y-64795238D01*
X149761904Y-64890476D01*
X149857142Y-64938095D01*
X148500000Y-86140595D02*
X148547619Y-86235833D01*
X148547619Y-86378690D01*
X148500000Y-86521547D01*
X148404761Y-86616785D01*
X148309523Y-86664404D01*
X148119047Y-86712023D01*
X147976190Y-86712023D01*
X147785714Y-86664404D01*
X147690476Y-86616785D01*
X147595238Y-86521547D01*
X147547619Y-86378690D01*
X147547619Y-86283452D01*
X147595238Y-86140595D01*
X147642857Y-86092976D01*
X147976190Y-86092976D01*
X147976190Y-86283452D01*
X147547619Y-85664404D02*
X148547619Y-85664404D01*
X147547619Y-85092976D01*
X148547619Y-85092976D01*
X147547619Y-84616785D02*
X148547619Y-84616785D01*
X148547619Y-84378690D01*
X148500000Y-84235833D01*
X148404761Y-84140595D01*
X148309523Y-84092976D01*
X148119047Y-84045357D01*
X147976190Y-84045357D01*
X147785714Y-84092976D01*
X147690476Y-84140595D01*
X147595238Y-84235833D01*
X147547619Y-84378690D01*
X147547619Y-84616785D01*
X125809523Y-77652380D02*
X125142857Y-78652380D01*
X125142857Y-77652380D02*
X125809523Y-78652380D01*
X124857142Y-77652380D02*
X124238095Y-77652380D01*
X124571428Y-78033333D01*
X124428571Y-78033333D01*
X124333333Y-78080952D01*
X124285714Y-78128571D01*
X124238095Y-78223809D01*
X124238095Y-78461904D01*
X124285714Y-78557142D01*
X124333333Y-78604761D01*
X124428571Y-78652380D01*
X124714285Y-78652380D01*
X124809523Y-78604761D01*
X124857142Y-78557142D01*
X146297619Y-90509642D02*
X146297619Y-89890595D01*
X145916666Y-90223928D01*
X145916666Y-90081071D01*
X145869047Y-89985833D01*
X145821428Y-89938214D01*
X145726190Y-89890595D01*
X145488095Y-89890595D01*
X145392857Y-89938214D01*
X145345238Y-89985833D01*
X145297619Y-90081071D01*
X145297619Y-90366785D01*
X145345238Y-90462023D01*
X145392857Y-90509642D01*
X146297619Y-89604880D02*
X145297619Y-89271547D01*
X146297619Y-88938214D01*
X146297619Y-88700119D02*
X146297619Y-88081071D01*
X145916666Y-88414404D01*
X145916666Y-88271547D01*
X145869047Y-88176309D01*
X145821428Y-88128690D01*
X145726190Y-88081071D01*
X145488095Y-88081071D01*
X145392857Y-88128690D01*
X145345238Y-88176309D01*
X145297619Y-88271547D01*
X145297619Y-88557261D01*
X145345238Y-88652500D01*
X145392857Y-88700119D01*
X154392857Y-89842976D02*
X154345238Y-89890595D01*
X154297619Y-90033452D01*
X154297619Y-90128690D01*
X154345238Y-90271547D01*
X154440476Y-90366785D01*
X154535714Y-90414404D01*
X154726190Y-90462023D01*
X154869047Y-90462023D01*
X155059523Y-90414404D01*
X155154761Y-90366785D01*
X155250000Y-90271547D01*
X155297619Y-90128690D01*
X155297619Y-90033452D01*
X155250000Y-89890595D01*
X155202380Y-89842976D01*
X154297619Y-88938214D02*
X154297619Y-89414404D01*
X155297619Y-89414404D01*
X154297619Y-88604880D02*
X155297619Y-88604880D01*
X154297619Y-88033452D02*
X154869047Y-88462023D01*
X155297619Y-88033452D02*
X154726190Y-88604880D01*
X154297619Y-86664404D02*
X155297619Y-86664404D01*
X155297619Y-86426309D01*
X155250000Y-86283452D01*
X155154761Y-86188214D01*
X155059523Y-86140595D01*
X154869047Y-86092976D01*
X154726190Y-86092976D01*
X154535714Y-86140595D01*
X154440476Y-86188214D01*
X154345238Y-86283452D01*
X154297619Y-86426309D01*
X154297619Y-86664404D01*
X154297619Y-85140595D02*
X154297619Y-85712023D01*
X154297619Y-85426309D02*
X155297619Y-85426309D01*
X155154761Y-85521547D01*
X155059523Y-85616785D01*
X155011904Y-85712023D01*
X125514285Y-92071428D02*
X124752380Y-92071428D01*
X125133333Y-92452380D02*
X125133333Y-91690476D01*
X123752380Y-92452380D02*
X124323809Y-92452380D01*
X124038095Y-92452380D02*
X124038095Y-91452380D01*
X124133333Y-91595238D01*
X124228571Y-91690476D01*
X124323809Y-91738095D01*
X123180952Y-91880952D02*
X123276190Y-91833333D01*
X123323809Y-91785714D01*
X123371428Y-91690476D01*
X123371428Y-91642857D01*
X123323809Y-91547619D01*
X123276190Y-91500000D01*
X123180952Y-91452380D01*
X122990476Y-91452380D01*
X122895238Y-91500000D01*
X122847619Y-91547619D01*
X122800000Y-91642857D01*
X122800000Y-91690476D01*
X122847619Y-91785714D01*
X122895238Y-91833333D01*
X122990476Y-91880952D01*
X123180952Y-91880952D01*
X123276190Y-91928571D01*
X123323809Y-91976190D01*
X123371428Y-92071428D01*
X123371428Y-92261904D01*
X123323809Y-92357142D01*
X123276190Y-92404761D01*
X123180952Y-92452380D01*
X122990476Y-92452380D01*
X122895238Y-92404761D01*
X122847619Y-92357142D01*
X122800000Y-92261904D01*
X122800000Y-92071428D01*
X122847619Y-91976190D01*
X122895238Y-91928571D01*
X122990476Y-91880952D01*
X122466666Y-91785714D02*
X122228571Y-92452380D01*
X121990476Y-91785714D01*
X156547619Y-86664404D02*
X157547619Y-86664404D01*
X157547619Y-86426309D01*
X157500000Y-86283452D01*
X157404761Y-86188214D01*
X157309523Y-86140595D01*
X157119047Y-86092976D01*
X156976190Y-86092976D01*
X156785714Y-86140595D01*
X156690476Y-86188214D01*
X156595238Y-86283452D01*
X156547619Y-86426309D01*
X156547619Y-86664404D01*
X157547619Y-85473928D02*
X157547619Y-85378690D01*
X157500000Y-85283452D01*
X157452380Y-85235833D01*
X157357142Y-85188214D01*
X157166666Y-85140595D01*
X156928571Y-85140595D01*
X156738095Y-85188214D01*
X156642857Y-85235833D01*
X156595238Y-85283452D01*
X156547619Y-85378690D01*
X156547619Y-85473928D01*
X156595238Y-85569166D01*
X156642857Y-85616785D01*
X156738095Y-85664404D01*
X156928571Y-85712023D01*
X157166666Y-85712023D01*
X157357142Y-85664404D01*
X157452380Y-85616785D01*
X157500000Y-85569166D01*
X157547619Y-85473928D01*
X135809523Y-77652380D02*
X135142857Y-78652380D01*
X135142857Y-77652380D02*
X135809523Y-78652380D01*
X134809523Y-77747619D02*
X134761904Y-77700000D01*
X134666666Y-77652380D01*
X134428571Y-77652380D01*
X134333333Y-77700000D01*
X134285714Y-77747619D01*
X134238095Y-77842857D01*
X134238095Y-77938095D01*
X134285714Y-78080952D01*
X134857142Y-78652380D01*
X134238095Y-78652380D01*
X115809523Y-77652380D02*
X115142857Y-78652380D01*
X115142857Y-77652380D02*
X115809523Y-78652380D01*
X114333333Y-77985714D02*
X114333333Y-78652380D01*
X114571428Y-77604761D02*
X114809523Y-78319047D01*
X114190476Y-78319047D01*
X150476190Y-75176190D02*
X150476190Y-75652380D01*
X150809523Y-74652380D02*
X150476190Y-75176190D01*
X150142857Y-74652380D01*
X149619047Y-74652380D02*
X149523809Y-74652380D01*
X149428571Y-74700000D01*
X149380952Y-74747619D01*
X149333333Y-74842857D01*
X149285714Y-75033333D01*
X149285714Y-75271428D01*
X149333333Y-75461904D01*
X149380952Y-75557142D01*
X149428571Y-75604761D01*
X149523809Y-75652380D01*
X149619047Y-75652380D01*
X149714285Y-75604761D01*
X149761904Y-75557142D01*
X149809523Y-75461904D01*
X149857142Y-75271428D01*
X149857142Y-75033333D01*
X149809523Y-74842857D01*
X149761904Y-74747619D01*
X149714285Y-74700000D01*
X149619047Y-74652380D01*
X124161904Y-95100000D02*
X124257142Y-95052380D01*
X124400000Y-95052380D01*
X124542857Y-95100000D01*
X124638095Y-95195238D01*
X124685714Y-95290476D01*
X124733333Y-95480952D01*
X124733333Y-95623809D01*
X124685714Y-95814285D01*
X124638095Y-95909523D01*
X124542857Y-96004761D01*
X124400000Y-96052380D01*
X124304761Y-96052380D01*
X124161904Y-96004761D01*
X124114285Y-95957142D01*
X124114285Y-95623809D01*
X124304761Y-95623809D01*
X123685714Y-96052380D02*
X123685714Y-95052380D01*
X123114285Y-96052380D01*
X123114285Y-95052380D01*
X122638095Y-96052380D02*
X122638095Y-95052380D01*
X122400000Y-95052380D01*
X122257142Y-95100000D01*
X122161904Y-95195238D01*
X122114285Y-95290476D01*
X122066666Y-95480952D01*
X122066666Y-95623809D01*
X122114285Y-95814285D01*
X122161904Y-95909523D01*
X122257142Y-96004761D01*
X122400000Y-96052380D01*
X122638095Y-96052380D01*
X145809523Y-77652380D02*
X145142857Y-78652380D01*
X145142857Y-77652380D02*
X145809523Y-78652380D01*
X144238095Y-78652380D02*
X144809523Y-78652380D01*
X144523809Y-78652380D02*
X144523809Y-77652380D01*
X144619047Y-77795238D01*
X144714285Y-77890476D01*
X144809523Y-77938095D01*
X150476190Y-55176190D02*
X150476190Y-55652380D01*
X150809523Y-54652380D02*
X150476190Y-55176190D01*
X150142857Y-54652380D01*
X149857142Y-54747619D02*
X149809523Y-54700000D01*
X149714285Y-54652380D01*
X149476190Y-54652380D01*
X149380952Y-54700000D01*
X149333333Y-54747619D01*
X149285714Y-54842857D01*
X149285714Y-54938095D01*
X149333333Y-55080952D01*
X149904761Y-55652380D01*
X149285714Y-55652380D01*
X149797619Y-86664404D02*
X150797619Y-86664404D01*
X150797619Y-86426309D01*
X150750000Y-86283452D01*
X150654761Y-86188214D01*
X150559523Y-86140595D01*
X150369047Y-86092976D01*
X150226190Y-86092976D01*
X150035714Y-86140595D01*
X149940476Y-86188214D01*
X149845238Y-86283452D01*
X149797619Y-86426309D01*
X149797619Y-86664404D01*
X150797619Y-85759642D02*
X150797619Y-85140595D01*
X150416666Y-85473928D01*
X150416666Y-85331071D01*
X150369047Y-85235833D01*
X150321428Y-85188214D01*
X150226190Y-85140595D01*
X149988095Y-85140595D01*
X149892857Y-85188214D01*
X149845238Y-85235833D01*
X149797619Y-85331071D01*
X149797619Y-85616785D01*
X149845238Y-85712023D01*
X149892857Y-85759642D01*
X122619047Y-75902380D02*
X123190476Y-75902380D01*
X122904761Y-75902380D02*
X122904761Y-74902380D01*
X123000000Y-75045238D01*
X123095238Y-75140476D01*
X123190476Y-75188095D01*
X122000000Y-74902380D02*
X121904761Y-74902380D01*
X121809523Y-74950000D01*
X121761904Y-74997619D01*
X121714285Y-75092857D01*
X121666666Y-75283333D01*
X121666666Y-75521428D01*
X121714285Y-75711904D01*
X121761904Y-75807142D01*
X121809523Y-75854761D01*
X121904761Y-75902380D01*
X122000000Y-75902380D01*
X122095238Y-75854761D01*
X122142857Y-75807142D01*
X122190476Y-75711904D01*
X122238095Y-75521428D01*
X122238095Y-75283333D01*
X122190476Y-75092857D01*
X122142857Y-74997619D01*
X122095238Y-74950000D01*
X122000000Y-74902380D01*
X121190476Y-75854761D02*
X121190476Y-75902380D01*
X121238095Y-75997619D01*
X121285714Y-76045238D01*
X120571428Y-74902380D02*
X120476190Y-74902380D01*
X120380952Y-74950000D01*
X120333333Y-74997619D01*
X120285714Y-75092857D01*
X120238095Y-75283333D01*
X120238095Y-75521428D01*
X120285714Y-75711904D01*
X120333333Y-75807142D01*
X120380952Y-75854761D01*
X120476190Y-75902380D01*
X120571428Y-75902380D01*
X120666666Y-75854761D01*
X120714285Y-75807142D01*
X120761904Y-75711904D01*
X120809523Y-75521428D01*
X120809523Y-75283333D01*
X120761904Y-75092857D01*
X120714285Y-74997619D01*
X120666666Y-74950000D01*
X120571428Y-74902380D01*
X119047619Y-75902380D02*
X119047619Y-75235714D01*
X119047619Y-75330952D02*
X119000000Y-75283333D01*
X118904761Y-75235714D01*
X118761904Y-75235714D01*
X118666666Y-75283333D01*
X118619047Y-75378571D01*
X118619047Y-75902380D01*
X118619047Y-75378571D02*
X118571428Y-75283333D01*
X118476190Y-75235714D01*
X118333333Y-75235714D01*
X118238095Y-75283333D01*
X118190476Y-75378571D01*
X118190476Y-75902380D01*
X117714285Y-75902380D02*
X117714285Y-75235714D01*
X117714285Y-75330952D02*
X117666666Y-75283333D01*
X117571428Y-75235714D01*
X117428571Y-75235714D01*
X117333333Y-75283333D01*
X117285714Y-75378571D01*
X117285714Y-75902380D01*
X117285714Y-75378571D02*
X117238095Y-75283333D01*
X117142857Y-75235714D01*
X116999999Y-75235714D01*
X116904761Y-75283333D01*
X116857142Y-75378571D01*
X116857142Y-75902380D01*
X115000000Y-70500000D02*
X115000000Y-77186420D01*
X125000000Y-70500000D02*
X125000000Y-77186420D01*
X115000000Y-76600000D02*
X125000000Y-76600000D01*
X115000000Y-76600000D02*
X125000000Y-76600000D01*
X115000000Y-76600000D02*
X116126504Y-77186421D01*
X115000000Y-76600000D02*
X116126504Y-76013579D01*
X125000000Y-76600000D02*
X123873496Y-76013579D01*
X125000000Y-76600000D02*
X123873496Y-77186421D01*
%TO.C,LS3*%
X155642857Y-47252380D02*
X156119047Y-47252380D01*
X156119047Y-46252380D01*
X155357142Y-47204761D02*
X155214285Y-47252380D01*
X154976190Y-47252380D01*
X154880952Y-47204761D01*
X154833333Y-47157142D01*
X154785714Y-47061904D01*
X154785714Y-46966666D01*
X154833333Y-46871428D01*
X154880952Y-46823809D01*
X154976190Y-46776190D01*
X155166666Y-46728571D01*
X155261904Y-46680952D01*
X155309523Y-46633333D01*
X155357142Y-46538095D01*
X155357142Y-46442857D01*
X155309523Y-46347619D01*
X155261904Y-46300000D01*
X155166666Y-46252380D01*
X154928571Y-46252380D01*
X154785714Y-46300000D01*
X154452380Y-46252380D02*
X153833333Y-46252380D01*
X154166666Y-46633333D01*
X154023809Y-46633333D01*
X153928571Y-46680952D01*
X153880952Y-46728571D01*
X153833333Y-46823809D01*
X153833333Y-47061904D01*
X153880952Y-47157142D01*
X153928571Y-47204761D01*
X154023809Y-47252380D01*
X154309523Y-47252380D01*
X154404761Y-47204761D01*
X154452380Y-47157142D01*
%TO.C,LS25*%
X116119047Y-27252380D02*
X116595238Y-27252380D01*
X116595238Y-26252380D01*
X115833333Y-27204761D02*
X115690476Y-27252380D01*
X115452380Y-27252380D01*
X115357142Y-27204761D01*
X115309523Y-27157142D01*
X115261904Y-27061904D01*
X115261904Y-26966666D01*
X115309523Y-26871428D01*
X115357142Y-26823809D01*
X115452380Y-26776190D01*
X115642857Y-26728571D01*
X115738095Y-26680952D01*
X115785714Y-26633333D01*
X115833333Y-26538095D01*
X115833333Y-26442857D01*
X115785714Y-26347619D01*
X115738095Y-26300000D01*
X115642857Y-26252380D01*
X115404761Y-26252380D01*
X115261904Y-26300000D01*
X114880952Y-26347619D02*
X114833333Y-26300000D01*
X114738095Y-26252380D01*
X114500000Y-26252380D01*
X114404761Y-26300000D01*
X114357142Y-26347619D01*
X114309523Y-26442857D01*
X114309523Y-26538095D01*
X114357142Y-26680952D01*
X114928571Y-27252380D01*
X114309523Y-27252380D01*
X113404761Y-26252380D02*
X113880952Y-26252380D01*
X113928571Y-26728571D01*
X113880952Y-26680952D01*
X113785714Y-26633333D01*
X113547619Y-26633333D01*
X113452380Y-26680952D01*
X113404761Y-26728571D01*
X113357142Y-26823809D01*
X113357142Y-27061904D01*
X113404761Y-27157142D01*
X113452380Y-27204761D01*
X113547619Y-27252380D01*
X113785714Y-27252380D01*
X113880952Y-27204761D01*
X113928571Y-27157142D01*
%TO.C,LS18*%
X146119047Y-27252380D02*
X146595238Y-27252380D01*
X146595238Y-26252380D01*
X145833333Y-27204761D02*
X145690476Y-27252380D01*
X145452380Y-27252380D01*
X145357142Y-27204761D01*
X145309523Y-27157142D01*
X145261904Y-27061904D01*
X145261904Y-26966666D01*
X145309523Y-26871428D01*
X145357142Y-26823809D01*
X145452380Y-26776190D01*
X145642857Y-26728571D01*
X145738095Y-26680952D01*
X145785714Y-26633333D01*
X145833333Y-26538095D01*
X145833333Y-26442857D01*
X145785714Y-26347619D01*
X145738095Y-26300000D01*
X145642857Y-26252380D01*
X145404761Y-26252380D01*
X145261904Y-26300000D01*
X144309523Y-27252380D02*
X144880952Y-27252380D01*
X144595238Y-27252380D02*
X144595238Y-26252380D01*
X144690476Y-26395238D01*
X144785714Y-26490476D01*
X144880952Y-26538095D01*
X143738095Y-26680952D02*
X143833333Y-26633333D01*
X143880952Y-26585714D01*
X143928571Y-26490476D01*
X143928571Y-26442857D01*
X143880952Y-26347619D01*
X143833333Y-26300000D01*
X143738095Y-26252380D01*
X143547619Y-26252380D01*
X143452380Y-26300000D01*
X143404761Y-26347619D01*
X143357142Y-26442857D01*
X143357142Y-26490476D01*
X143404761Y-26585714D01*
X143452380Y-26633333D01*
X143547619Y-26680952D01*
X143738095Y-26680952D01*
X143833333Y-26728571D01*
X143880952Y-26776190D01*
X143928571Y-26871428D01*
X143928571Y-27061904D01*
X143880952Y-27157142D01*
X143833333Y-27204761D01*
X143738095Y-27252380D01*
X143547619Y-27252380D01*
X143452380Y-27204761D01*
X143404761Y-27157142D01*
X143357142Y-27061904D01*
X143357142Y-26871428D01*
X143404761Y-26776190D01*
X143452380Y-26728571D01*
X143547619Y-26680952D01*
%TO.C,LS16*%
X126119047Y-37252380D02*
X126595238Y-37252380D01*
X126595238Y-36252380D01*
X125833333Y-37204761D02*
X125690476Y-37252380D01*
X125452380Y-37252380D01*
X125357142Y-37204761D01*
X125309523Y-37157142D01*
X125261904Y-37061904D01*
X125261904Y-36966666D01*
X125309523Y-36871428D01*
X125357142Y-36823809D01*
X125452380Y-36776190D01*
X125642857Y-36728571D01*
X125738095Y-36680952D01*
X125785714Y-36633333D01*
X125833333Y-36538095D01*
X125833333Y-36442857D01*
X125785714Y-36347619D01*
X125738095Y-36300000D01*
X125642857Y-36252380D01*
X125404761Y-36252380D01*
X125261904Y-36300000D01*
X124309523Y-37252380D02*
X124880952Y-37252380D01*
X124595238Y-37252380D02*
X124595238Y-36252380D01*
X124690476Y-36395238D01*
X124785714Y-36490476D01*
X124880952Y-36538095D01*
X123452380Y-36252380D02*
X123642857Y-36252380D01*
X123738095Y-36300000D01*
X123785714Y-36347619D01*
X123880952Y-36490476D01*
X123928571Y-36680952D01*
X123928571Y-37061904D01*
X123880952Y-37157142D01*
X123833333Y-37204761D01*
X123738095Y-37252380D01*
X123547619Y-37252380D01*
X123452380Y-37204761D01*
X123404761Y-37157142D01*
X123357142Y-37061904D01*
X123357142Y-36823809D01*
X123404761Y-36728571D01*
X123452380Y-36680952D01*
X123547619Y-36633333D01*
X123738095Y-36633333D01*
X123833333Y-36680952D01*
X123880952Y-36728571D01*
X123928571Y-36823809D01*
%TO.C,LS23*%
X116119047Y-47252380D02*
X116595238Y-47252380D01*
X116595238Y-46252380D01*
X115833333Y-47204761D02*
X115690476Y-47252380D01*
X115452380Y-47252380D01*
X115357142Y-47204761D01*
X115309523Y-47157142D01*
X115261904Y-47061904D01*
X115261904Y-46966666D01*
X115309523Y-46871428D01*
X115357142Y-46823809D01*
X115452380Y-46776190D01*
X115642857Y-46728571D01*
X115738095Y-46680952D01*
X115785714Y-46633333D01*
X115833333Y-46538095D01*
X115833333Y-46442857D01*
X115785714Y-46347619D01*
X115738095Y-46300000D01*
X115642857Y-46252380D01*
X115404761Y-46252380D01*
X115261904Y-46300000D01*
X114880952Y-46347619D02*
X114833333Y-46300000D01*
X114738095Y-46252380D01*
X114500000Y-46252380D01*
X114404761Y-46300000D01*
X114357142Y-46347619D01*
X114309523Y-46442857D01*
X114309523Y-46538095D01*
X114357142Y-46680952D01*
X114928571Y-47252380D01*
X114309523Y-47252380D01*
X113976190Y-46252380D02*
X113357142Y-46252380D01*
X113690476Y-46633333D01*
X113547619Y-46633333D01*
X113452380Y-46680952D01*
X113404761Y-46728571D01*
X113357142Y-46823809D01*
X113357142Y-47061904D01*
X113404761Y-47157142D01*
X113452380Y-47204761D01*
X113547619Y-47252380D01*
X113833333Y-47252380D01*
X113928571Y-47204761D01*
X113976190Y-47157142D01*
%TO.C,J3*%
X118852380Y-93666666D02*
X119566666Y-93666666D01*
X119709523Y-93619047D01*
X119804761Y-93523809D01*
X119852380Y-93380952D01*
X119852380Y-93285714D01*
X118852380Y-94047619D02*
X118852380Y-94666666D01*
X119233333Y-94333333D01*
X119233333Y-94476190D01*
X119280952Y-94571428D01*
X119328571Y-94619047D01*
X119423809Y-94666666D01*
X119661904Y-94666666D01*
X119757142Y-94619047D01*
X119804761Y-94571428D01*
X119852380Y-94476190D01*
X119852380Y-94190476D01*
X119804761Y-94095238D01*
X119757142Y-94047619D01*
%TO.C,LS12*%
X136119047Y-37252380D02*
X136595238Y-37252380D01*
X136595238Y-36252380D01*
X135833333Y-37204761D02*
X135690476Y-37252380D01*
X135452380Y-37252380D01*
X135357142Y-37204761D01*
X135309523Y-37157142D01*
X135261904Y-37061904D01*
X135261904Y-36966666D01*
X135309523Y-36871428D01*
X135357142Y-36823809D01*
X135452380Y-36776190D01*
X135642857Y-36728571D01*
X135738095Y-36680952D01*
X135785714Y-36633333D01*
X135833333Y-36538095D01*
X135833333Y-36442857D01*
X135785714Y-36347619D01*
X135738095Y-36300000D01*
X135642857Y-36252380D01*
X135404761Y-36252380D01*
X135261904Y-36300000D01*
X134309523Y-37252380D02*
X134880952Y-37252380D01*
X134595238Y-37252380D02*
X134595238Y-36252380D01*
X134690476Y-36395238D01*
X134785714Y-36490476D01*
X134880952Y-36538095D01*
X133928571Y-36347619D02*
X133880952Y-36300000D01*
X133785714Y-36252380D01*
X133547619Y-36252380D01*
X133452380Y-36300000D01*
X133404761Y-36347619D01*
X133357142Y-36442857D01*
X133357142Y-36538095D01*
X133404761Y-36680952D01*
X133976190Y-37252380D01*
X133357142Y-37252380D01*
%TO.C,LS9*%
X135642857Y-67252380D02*
X136119047Y-67252380D01*
X136119047Y-66252380D01*
X135357142Y-67204761D02*
X135214285Y-67252380D01*
X134976190Y-67252380D01*
X134880952Y-67204761D01*
X134833333Y-67157142D01*
X134785714Y-67061904D01*
X134785714Y-66966666D01*
X134833333Y-66871428D01*
X134880952Y-66823809D01*
X134976190Y-66776190D01*
X135166666Y-66728571D01*
X135261904Y-66680952D01*
X135309523Y-66633333D01*
X135357142Y-66538095D01*
X135357142Y-66442857D01*
X135309523Y-66347619D01*
X135261904Y-66300000D01*
X135166666Y-66252380D01*
X134928571Y-66252380D01*
X134785714Y-66300000D01*
X134309523Y-67252380D02*
X134119047Y-67252380D01*
X134023809Y-67204761D01*
X133976190Y-67157142D01*
X133880952Y-67014285D01*
X133833333Y-66823809D01*
X133833333Y-66442857D01*
X133880952Y-66347619D01*
X133928571Y-66300000D01*
X134023809Y-66252380D01*
X134214285Y-66252380D01*
X134309523Y-66300000D01*
X134357142Y-66347619D01*
X134404761Y-66442857D01*
X134404761Y-66680952D01*
X134357142Y-66776190D01*
X134309523Y-66823809D01*
X134214285Y-66871428D01*
X134023809Y-66871428D01*
X133928571Y-66823809D01*
X133880952Y-66776190D01*
X133833333Y-66680952D01*
%TO.C,LS24*%
X116119047Y-37252380D02*
X116595238Y-37252380D01*
X116595238Y-36252380D01*
X115833333Y-37204761D02*
X115690476Y-37252380D01*
X115452380Y-37252380D01*
X115357142Y-37204761D01*
X115309523Y-37157142D01*
X115261904Y-37061904D01*
X115261904Y-36966666D01*
X115309523Y-36871428D01*
X115357142Y-36823809D01*
X115452380Y-36776190D01*
X115642857Y-36728571D01*
X115738095Y-36680952D01*
X115785714Y-36633333D01*
X115833333Y-36538095D01*
X115833333Y-36442857D01*
X115785714Y-36347619D01*
X115738095Y-36300000D01*
X115642857Y-36252380D01*
X115404761Y-36252380D01*
X115261904Y-36300000D01*
X114880952Y-36347619D02*
X114833333Y-36300000D01*
X114738095Y-36252380D01*
X114500000Y-36252380D01*
X114404761Y-36300000D01*
X114357142Y-36347619D01*
X114309523Y-36442857D01*
X114309523Y-36538095D01*
X114357142Y-36680952D01*
X114928571Y-37252380D01*
X114309523Y-37252380D01*
X113452380Y-36585714D02*
X113452380Y-37252380D01*
X113690476Y-36204761D02*
X113928571Y-36919047D01*
X113309523Y-36919047D01*
%TO.C,LS10*%
X136119047Y-57252380D02*
X136595238Y-57252380D01*
X136595238Y-56252380D01*
X135833333Y-57204761D02*
X135690476Y-57252380D01*
X135452380Y-57252380D01*
X135357142Y-57204761D01*
X135309523Y-57157142D01*
X135261904Y-57061904D01*
X135261904Y-56966666D01*
X135309523Y-56871428D01*
X135357142Y-56823809D01*
X135452380Y-56776190D01*
X135642857Y-56728571D01*
X135738095Y-56680952D01*
X135785714Y-56633333D01*
X135833333Y-56538095D01*
X135833333Y-56442857D01*
X135785714Y-56347619D01*
X135738095Y-56300000D01*
X135642857Y-56252380D01*
X135404761Y-56252380D01*
X135261904Y-56300000D01*
X134309523Y-57252380D02*
X134880952Y-57252380D01*
X134595238Y-57252380D02*
X134595238Y-56252380D01*
X134690476Y-56395238D01*
X134785714Y-56490476D01*
X134880952Y-56538095D01*
X133690476Y-56252380D02*
X133595238Y-56252380D01*
X133500000Y-56300000D01*
X133452380Y-56347619D01*
X133404761Y-56442857D01*
X133357142Y-56633333D01*
X133357142Y-56871428D01*
X133404761Y-57061904D01*
X133452380Y-57157142D01*
X133500000Y-57204761D01*
X133595238Y-57252380D01*
X133690476Y-57252380D01*
X133785714Y-57204761D01*
X133833333Y-57157142D01*
X133880952Y-57061904D01*
X133928571Y-56871428D01*
X133928571Y-56633333D01*
X133880952Y-56442857D01*
X133833333Y-56347619D01*
X133785714Y-56300000D01*
X133690476Y-56252380D01*
%TO.C,LS15*%
X126119047Y-47252380D02*
X126595238Y-47252380D01*
X126595238Y-46252380D01*
X125833333Y-47204761D02*
X125690476Y-47252380D01*
X125452380Y-47252380D01*
X125357142Y-47204761D01*
X125309523Y-47157142D01*
X125261904Y-47061904D01*
X125261904Y-46966666D01*
X125309523Y-46871428D01*
X125357142Y-46823809D01*
X125452380Y-46776190D01*
X125642857Y-46728571D01*
X125738095Y-46680952D01*
X125785714Y-46633333D01*
X125833333Y-46538095D01*
X125833333Y-46442857D01*
X125785714Y-46347619D01*
X125738095Y-46300000D01*
X125642857Y-46252380D01*
X125404761Y-46252380D01*
X125261904Y-46300000D01*
X124309523Y-47252380D02*
X124880952Y-47252380D01*
X124595238Y-47252380D02*
X124595238Y-46252380D01*
X124690476Y-46395238D01*
X124785714Y-46490476D01*
X124880952Y-46538095D01*
X123404761Y-46252380D02*
X123880952Y-46252380D01*
X123928571Y-46728571D01*
X123880952Y-46680952D01*
X123785714Y-46633333D01*
X123547619Y-46633333D01*
X123452380Y-46680952D01*
X123404761Y-46728571D01*
X123357142Y-46823809D01*
X123357142Y-47061904D01*
X123404761Y-47157142D01*
X123452380Y-47204761D01*
X123547619Y-47252380D01*
X123785714Y-47252380D01*
X123880952Y-47204761D01*
X123928571Y-47157142D01*
%TO.C,LS22*%
X116119047Y-57252380D02*
X116595238Y-57252380D01*
X116595238Y-56252380D01*
X115833333Y-57204761D02*
X115690476Y-57252380D01*
X115452380Y-57252380D01*
X115357142Y-57204761D01*
X115309523Y-57157142D01*
X115261904Y-57061904D01*
X115261904Y-56966666D01*
X115309523Y-56871428D01*
X115357142Y-56823809D01*
X115452380Y-56776190D01*
X115642857Y-56728571D01*
X115738095Y-56680952D01*
X115785714Y-56633333D01*
X115833333Y-56538095D01*
X115833333Y-56442857D01*
X115785714Y-56347619D01*
X115738095Y-56300000D01*
X115642857Y-56252380D01*
X115404761Y-56252380D01*
X115261904Y-56300000D01*
X114880952Y-56347619D02*
X114833333Y-56300000D01*
X114738095Y-56252380D01*
X114500000Y-56252380D01*
X114404761Y-56300000D01*
X114357142Y-56347619D01*
X114309523Y-56442857D01*
X114309523Y-56538095D01*
X114357142Y-56680952D01*
X114928571Y-57252380D01*
X114309523Y-57252380D01*
X113928571Y-56347619D02*
X113880952Y-56300000D01*
X113785714Y-56252380D01*
X113547619Y-56252380D01*
X113452380Y-56300000D01*
X113404761Y-56347619D01*
X113357142Y-56442857D01*
X113357142Y-56538095D01*
X113404761Y-56680952D01*
X113976190Y-57252380D01*
X113357142Y-57252380D01*
%TO.C,LS2*%
X155642857Y-57252380D02*
X156119047Y-57252380D01*
X156119047Y-56252380D01*
X155357142Y-57204761D02*
X155214285Y-57252380D01*
X154976190Y-57252380D01*
X154880952Y-57204761D01*
X154833333Y-57157142D01*
X154785714Y-57061904D01*
X154785714Y-56966666D01*
X154833333Y-56871428D01*
X154880952Y-56823809D01*
X154976190Y-56776190D01*
X155166666Y-56728571D01*
X155261904Y-56680952D01*
X155309523Y-56633333D01*
X155357142Y-56538095D01*
X155357142Y-56442857D01*
X155309523Y-56347619D01*
X155261904Y-56300000D01*
X155166666Y-56252380D01*
X154928571Y-56252380D01*
X154785714Y-56300000D01*
X154404761Y-56347619D02*
X154357142Y-56300000D01*
X154261904Y-56252380D01*
X154023809Y-56252380D01*
X153928571Y-56300000D01*
X153880952Y-56347619D01*
X153833333Y-56442857D01*
X153833333Y-56538095D01*
X153880952Y-56680952D01*
X154452380Y-57252380D01*
X153833333Y-57252380D01*
%TO.C,LS4*%
X155642857Y-37252380D02*
X156119047Y-37252380D01*
X156119047Y-36252380D01*
X155357142Y-37204761D02*
X155214285Y-37252380D01*
X154976190Y-37252380D01*
X154880952Y-37204761D01*
X154833333Y-37157142D01*
X154785714Y-37061904D01*
X154785714Y-36966666D01*
X154833333Y-36871428D01*
X154880952Y-36823809D01*
X154976190Y-36776190D01*
X155166666Y-36728571D01*
X155261904Y-36680952D01*
X155309523Y-36633333D01*
X155357142Y-36538095D01*
X155357142Y-36442857D01*
X155309523Y-36347619D01*
X155261904Y-36300000D01*
X155166666Y-36252380D01*
X154928571Y-36252380D01*
X154785714Y-36300000D01*
X153928571Y-36585714D02*
X153928571Y-37252380D01*
X154166666Y-36204761D02*
X154404761Y-36919047D01*
X153785714Y-36919047D01*
%TO.C,LS8*%
X145642857Y-37252380D02*
X146119047Y-37252380D01*
X146119047Y-36252380D01*
X145357142Y-37204761D02*
X145214285Y-37252380D01*
X144976190Y-37252380D01*
X144880952Y-37204761D01*
X144833333Y-37157142D01*
X144785714Y-37061904D01*
X144785714Y-36966666D01*
X144833333Y-36871428D01*
X144880952Y-36823809D01*
X144976190Y-36776190D01*
X145166666Y-36728571D01*
X145261904Y-36680952D01*
X145309523Y-36633333D01*
X145357142Y-36538095D01*
X145357142Y-36442857D01*
X145309523Y-36347619D01*
X145261904Y-36300000D01*
X145166666Y-36252380D01*
X144928571Y-36252380D01*
X144785714Y-36300000D01*
X144214285Y-36680952D02*
X144309523Y-36633333D01*
X144357142Y-36585714D01*
X144404761Y-36490476D01*
X144404761Y-36442857D01*
X144357142Y-36347619D01*
X144309523Y-36300000D01*
X144214285Y-36252380D01*
X144023809Y-36252380D01*
X143928571Y-36300000D01*
X143880952Y-36347619D01*
X143833333Y-36442857D01*
X143833333Y-36490476D01*
X143880952Y-36585714D01*
X143928571Y-36633333D01*
X144023809Y-36680952D01*
X144214285Y-36680952D01*
X144309523Y-36728571D01*
X144357142Y-36776190D01*
X144404761Y-36871428D01*
X144404761Y-37061904D01*
X144357142Y-37157142D01*
X144309523Y-37204761D01*
X144214285Y-37252380D01*
X144023809Y-37252380D01*
X143928571Y-37204761D01*
X143880952Y-37157142D01*
X143833333Y-37061904D01*
X143833333Y-36871428D01*
X143880952Y-36776190D01*
X143928571Y-36728571D01*
X144023809Y-36680952D01*
%TO.C,LS1*%
X155642857Y-67252380D02*
X156119047Y-67252380D01*
X156119047Y-66252380D01*
X155357142Y-67204761D02*
X155214285Y-67252380D01*
X154976190Y-67252380D01*
X154880952Y-67204761D01*
X154833333Y-67157142D01*
X154785714Y-67061904D01*
X154785714Y-66966666D01*
X154833333Y-66871428D01*
X154880952Y-66823809D01*
X154976190Y-66776190D01*
X155166666Y-66728571D01*
X155261904Y-66680952D01*
X155309523Y-66633333D01*
X155357142Y-66538095D01*
X155357142Y-66442857D01*
X155309523Y-66347619D01*
X155261904Y-66300000D01*
X155166666Y-66252380D01*
X154928571Y-66252380D01*
X154785714Y-66300000D01*
X153833333Y-67252380D02*
X154404761Y-67252380D01*
X154119047Y-67252380D02*
X154119047Y-66252380D01*
X154214285Y-66395238D01*
X154309523Y-66490476D01*
X154404761Y-66538095D01*
%TO.C,LS11*%
X136119047Y-47252380D02*
X136595238Y-47252380D01*
X136595238Y-46252380D01*
X135833333Y-47204761D02*
X135690476Y-47252380D01*
X135452380Y-47252380D01*
X135357142Y-47204761D01*
X135309523Y-47157142D01*
X135261904Y-47061904D01*
X135261904Y-46966666D01*
X135309523Y-46871428D01*
X135357142Y-46823809D01*
X135452380Y-46776190D01*
X135642857Y-46728571D01*
X135738095Y-46680952D01*
X135785714Y-46633333D01*
X135833333Y-46538095D01*
X135833333Y-46442857D01*
X135785714Y-46347619D01*
X135738095Y-46300000D01*
X135642857Y-46252380D01*
X135404761Y-46252380D01*
X135261904Y-46300000D01*
X134309523Y-47252380D02*
X134880952Y-47252380D01*
X134595238Y-47252380D02*
X134595238Y-46252380D01*
X134690476Y-46395238D01*
X134785714Y-46490476D01*
X134880952Y-46538095D01*
X133357142Y-47252380D02*
X133928571Y-47252380D01*
X133642857Y-47252380D02*
X133642857Y-46252380D01*
X133738095Y-46395238D01*
X133833333Y-46490476D01*
X133928571Y-46538095D01*
%TO.C,LS20*%
X126119047Y-27252380D02*
X126595238Y-27252380D01*
X126595238Y-26252380D01*
X125833333Y-27204761D02*
X125690476Y-27252380D01*
X125452380Y-27252380D01*
X125357142Y-27204761D01*
X125309523Y-27157142D01*
X125261904Y-27061904D01*
X125261904Y-26966666D01*
X125309523Y-26871428D01*
X125357142Y-26823809D01*
X125452380Y-26776190D01*
X125642857Y-26728571D01*
X125738095Y-26680952D01*
X125785714Y-26633333D01*
X125833333Y-26538095D01*
X125833333Y-26442857D01*
X125785714Y-26347619D01*
X125738095Y-26300000D01*
X125642857Y-26252380D01*
X125404761Y-26252380D01*
X125261904Y-26300000D01*
X124880952Y-26347619D02*
X124833333Y-26300000D01*
X124738095Y-26252380D01*
X124500000Y-26252380D01*
X124404761Y-26300000D01*
X124357142Y-26347619D01*
X124309523Y-26442857D01*
X124309523Y-26538095D01*
X124357142Y-26680952D01*
X124928571Y-27252380D01*
X124309523Y-27252380D01*
X123690476Y-26252380D02*
X123595238Y-26252380D01*
X123500000Y-26300000D01*
X123452380Y-26347619D01*
X123404761Y-26442857D01*
X123357142Y-26633333D01*
X123357142Y-26871428D01*
X123404761Y-27061904D01*
X123452380Y-27157142D01*
X123500000Y-27204761D01*
X123595238Y-27252380D01*
X123690476Y-27252380D01*
X123785714Y-27204761D01*
X123833333Y-27157142D01*
X123880952Y-27061904D01*
X123928571Y-26871428D01*
X123928571Y-26633333D01*
X123880952Y-26442857D01*
X123833333Y-26347619D01*
X123785714Y-26300000D01*
X123690476Y-26252380D01*
%TO.C,LS13*%
X126119047Y-67252380D02*
X126595238Y-67252380D01*
X126595238Y-66252380D01*
X125833333Y-67204761D02*
X125690476Y-67252380D01*
X125452380Y-67252380D01*
X125357142Y-67204761D01*
X125309523Y-67157142D01*
X125261904Y-67061904D01*
X125261904Y-66966666D01*
X125309523Y-66871428D01*
X125357142Y-66823809D01*
X125452380Y-66776190D01*
X125642857Y-66728571D01*
X125738095Y-66680952D01*
X125785714Y-66633333D01*
X125833333Y-66538095D01*
X125833333Y-66442857D01*
X125785714Y-66347619D01*
X125738095Y-66300000D01*
X125642857Y-66252380D01*
X125404761Y-66252380D01*
X125261904Y-66300000D01*
X124309523Y-67252380D02*
X124880952Y-67252380D01*
X124595238Y-67252380D02*
X124595238Y-66252380D01*
X124690476Y-66395238D01*
X124785714Y-66490476D01*
X124880952Y-66538095D01*
X123976190Y-66252380D02*
X123357142Y-66252380D01*
X123690476Y-66633333D01*
X123547619Y-66633333D01*
X123452380Y-66680952D01*
X123404761Y-66728571D01*
X123357142Y-66823809D01*
X123357142Y-67061904D01*
X123404761Y-67157142D01*
X123452380Y-67204761D01*
X123547619Y-67252380D01*
X123833333Y-67252380D01*
X123928571Y-67204761D01*
X123976190Y-67157142D01*
%TO.C,LS6*%
X145642857Y-57252380D02*
X146119047Y-57252380D01*
X146119047Y-56252380D01*
X145357142Y-57204761D02*
X145214285Y-57252380D01*
X144976190Y-57252380D01*
X144880952Y-57204761D01*
X144833333Y-57157142D01*
X144785714Y-57061904D01*
X144785714Y-56966666D01*
X144833333Y-56871428D01*
X144880952Y-56823809D01*
X144976190Y-56776190D01*
X145166666Y-56728571D01*
X145261904Y-56680952D01*
X145309523Y-56633333D01*
X145357142Y-56538095D01*
X145357142Y-56442857D01*
X145309523Y-56347619D01*
X145261904Y-56300000D01*
X145166666Y-56252380D01*
X144928571Y-56252380D01*
X144785714Y-56300000D01*
X143928571Y-56252380D02*
X144119047Y-56252380D01*
X144214285Y-56300000D01*
X144261904Y-56347619D01*
X144357142Y-56490476D01*
X144404761Y-56680952D01*
X144404761Y-57061904D01*
X144357142Y-57157142D01*
X144309523Y-57204761D01*
X144214285Y-57252380D01*
X144023809Y-57252380D01*
X143928571Y-57204761D01*
X143880952Y-57157142D01*
X143833333Y-57061904D01*
X143833333Y-56823809D01*
X143880952Y-56728571D01*
X143928571Y-56680952D01*
X144023809Y-56633333D01*
X144214285Y-56633333D01*
X144309523Y-56680952D01*
X144357142Y-56728571D01*
X144404761Y-56823809D01*
%TO.C,LS19*%
X136119047Y-27252380D02*
X136595238Y-27252380D01*
X136595238Y-26252380D01*
X135833333Y-27204761D02*
X135690476Y-27252380D01*
X135452380Y-27252380D01*
X135357142Y-27204761D01*
X135309523Y-27157142D01*
X135261904Y-27061904D01*
X135261904Y-26966666D01*
X135309523Y-26871428D01*
X135357142Y-26823809D01*
X135452380Y-26776190D01*
X135642857Y-26728571D01*
X135738095Y-26680952D01*
X135785714Y-26633333D01*
X135833333Y-26538095D01*
X135833333Y-26442857D01*
X135785714Y-26347619D01*
X135738095Y-26300000D01*
X135642857Y-26252380D01*
X135404761Y-26252380D01*
X135261904Y-26300000D01*
X134309523Y-27252380D02*
X134880952Y-27252380D01*
X134595238Y-27252380D02*
X134595238Y-26252380D01*
X134690476Y-26395238D01*
X134785714Y-26490476D01*
X134880952Y-26538095D01*
X133833333Y-27252380D02*
X133642857Y-27252380D01*
X133547619Y-27204761D01*
X133500000Y-27157142D01*
X133404761Y-27014285D01*
X133357142Y-26823809D01*
X133357142Y-26442857D01*
X133404761Y-26347619D01*
X133452380Y-26300000D01*
X133547619Y-26252380D01*
X133738095Y-26252380D01*
X133833333Y-26300000D01*
X133880952Y-26347619D01*
X133928571Y-26442857D01*
X133928571Y-26680952D01*
X133880952Y-26776190D01*
X133833333Y-26823809D01*
X133738095Y-26871428D01*
X133547619Y-26871428D01*
X133452380Y-26823809D01*
X133404761Y-26776190D01*
X133357142Y-26680952D01*
%TO.C,LS5*%
X145642857Y-67252380D02*
X146119047Y-67252380D01*
X146119047Y-66252380D01*
X145357142Y-67204761D02*
X145214285Y-67252380D01*
X144976190Y-67252380D01*
X144880952Y-67204761D01*
X144833333Y-67157142D01*
X144785714Y-67061904D01*
X144785714Y-66966666D01*
X144833333Y-66871428D01*
X144880952Y-66823809D01*
X144976190Y-66776190D01*
X145166666Y-66728571D01*
X145261904Y-66680952D01*
X145309523Y-66633333D01*
X145357142Y-66538095D01*
X145357142Y-66442857D01*
X145309523Y-66347619D01*
X145261904Y-66300000D01*
X145166666Y-66252380D01*
X144928571Y-66252380D01*
X144785714Y-66300000D01*
X143880952Y-66252380D02*
X144357142Y-66252380D01*
X144404761Y-66728571D01*
X144357142Y-66680952D01*
X144261904Y-66633333D01*
X144023809Y-66633333D01*
X143928571Y-66680952D01*
X143880952Y-66728571D01*
X143833333Y-66823809D01*
X143833333Y-67061904D01*
X143880952Y-67157142D01*
X143928571Y-67204761D01*
X144023809Y-67252380D01*
X144261904Y-67252380D01*
X144357142Y-67204761D01*
X144404761Y-67157142D01*
%TO.C,C59*%
X116142857Y-81407142D02*
X116190476Y-81454761D01*
X116333333Y-81502380D01*
X116428571Y-81502380D01*
X116571428Y-81454761D01*
X116666666Y-81359523D01*
X116714285Y-81264285D01*
X116761904Y-81073809D01*
X116761904Y-80930952D01*
X116714285Y-80740476D01*
X116666666Y-80645238D01*
X116571428Y-80550000D01*
X116428571Y-80502380D01*
X116333333Y-80502380D01*
X116190476Y-80550000D01*
X116142857Y-80597619D01*
X115238095Y-80502380D02*
X115714285Y-80502380D01*
X115761904Y-80978571D01*
X115714285Y-80930952D01*
X115619047Y-80883333D01*
X115380952Y-80883333D01*
X115285714Y-80930952D01*
X115238095Y-80978571D01*
X115190476Y-81073809D01*
X115190476Y-81311904D01*
X115238095Y-81407142D01*
X115285714Y-81454761D01*
X115380952Y-81502380D01*
X115619047Y-81502380D01*
X115714285Y-81454761D01*
X115761904Y-81407142D01*
X114714285Y-81502380D02*
X114523809Y-81502380D01*
X114428571Y-81454761D01*
X114380952Y-81407142D01*
X114285714Y-81264285D01*
X114238095Y-81073809D01*
X114238095Y-80692857D01*
X114285714Y-80597619D01*
X114333333Y-80550000D01*
X114428571Y-80502380D01*
X114619047Y-80502380D01*
X114714285Y-80550000D01*
X114761904Y-80597619D01*
X114809523Y-80692857D01*
X114809523Y-80930952D01*
X114761904Y-81026190D01*
X114714285Y-81073809D01*
X114619047Y-81121428D01*
X114428571Y-81121428D01*
X114333333Y-81073809D01*
X114285714Y-81026190D01*
X114238095Y-80930952D01*
%TO.C,LS21*%
X116119047Y-67252380D02*
X116595238Y-67252380D01*
X116595238Y-66252380D01*
X115833333Y-67204761D02*
X115690476Y-67252380D01*
X115452380Y-67252380D01*
X115357142Y-67204761D01*
X115309523Y-67157142D01*
X115261904Y-67061904D01*
X115261904Y-66966666D01*
X115309523Y-66871428D01*
X115357142Y-66823809D01*
X115452380Y-66776190D01*
X115642857Y-66728571D01*
X115738095Y-66680952D01*
X115785714Y-66633333D01*
X115833333Y-66538095D01*
X115833333Y-66442857D01*
X115785714Y-66347619D01*
X115738095Y-66300000D01*
X115642857Y-66252380D01*
X115404761Y-66252380D01*
X115261904Y-66300000D01*
X114880952Y-66347619D02*
X114833333Y-66300000D01*
X114738095Y-66252380D01*
X114500000Y-66252380D01*
X114404761Y-66300000D01*
X114357142Y-66347619D01*
X114309523Y-66442857D01*
X114309523Y-66538095D01*
X114357142Y-66680952D01*
X114928571Y-67252380D01*
X114309523Y-67252380D01*
X113357142Y-67252380D02*
X113928571Y-67252380D01*
X113642857Y-67252380D02*
X113642857Y-66252380D01*
X113738095Y-66395238D01*
X113833333Y-66490476D01*
X113928571Y-66538095D01*
%TO.C,J2*%
X142833333Y-98452380D02*
X142833333Y-99166666D01*
X142880952Y-99309523D01*
X142976190Y-99404761D01*
X143119047Y-99452380D01*
X143214285Y-99452380D01*
X142404761Y-98547619D02*
X142357142Y-98500000D01*
X142261904Y-98452380D01*
X142023809Y-98452380D01*
X141928571Y-98500000D01*
X141880952Y-98547619D01*
X141833333Y-98642857D01*
X141833333Y-98738095D01*
X141880952Y-98880952D01*
X142452380Y-99452380D01*
X141833333Y-99452380D01*
%TO.C,LS14*%
X126119047Y-57252380D02*
X126595238Y-57252380D01*
X126595238Y-56252380D01*
X125833333Y-57204761D02*
X125690476Y-57252380D01*
X125452380Y-57252380D01*
X125357142Y-57204761D01*
X125309523Y-57157142D01*
X125261904Y-57061904D01*
X125261904Y-56966666D01*
X125309523Y-56871428D01*
X125357142Y-56823809D01*
X125452380Y-56776190D01*
X125642857Y-56728571D01*
X125738095Y-56680952D01*
X125785714Y-56633333D01*
X125833333Y-56538095D01*
X125833333Y-56442857D01*
X125785714Y-56347619D01*
X125738095Y-56300000D01*
X125642857Y-56252380D01*
X125404761Y-56252380D01*
X125261904Y-56300000D01*
X124309523Y-57252380D02*
X124880952Y-57252380D01*
X124595238Y-57252380D02*
X124595238Y-56252380D01*
X124690476Y-56395238D01*
X124785714Y-56490476D01*
X124880952Y-56538095D01*
X123452380Y-56585714D02*
X123452380Y-57252380D01*
X123690476Y-56204761D02*
X123928571Y-56919047D01*
X123309523Y-56919047D01*
%TO.C,LS7*%
X145642857Y-47252380D02*
X146119047Y-47252380D01*
X146119047Y-46252380D01*
X145357142Y-47204761D02*
X145214285Y-47252380D01*
X144976190Y-47252380D01*
X144880952Y-47204761D01*
X144833333Y-47157142D01*
X144785714Y-47061904D01*
X144785714Y-46966666D01*
X144833333Y-46871428D01*
X144880952Y-46823809D01*
X144976190Y-46776190D01*
X145166666Y-46728571D01*
X145261904Y-46680952D01*
X145309523Y-46633333D01*
X145357142Y-46538095D01*
X145357142Y-46442857D01*
X145309523Y-46347619D01*
X145261904Y-46300000D01*
X145166666Y-46252380D01*
X144928571Y-46252380D01*
X144785714Y-46300000D01*
X144452380Y-46252380D02*
X143785714Y-46252380D01*
X144214285Y-47252380D01*
%TO.C,LS17*%
X156119047Y-27252380D02*
X156595238Y-27252380D01*
X156595238Y-26252380D01*
X155833333Y-27204761D02*
X155690476Y-27252380D01*
X155452380Y-27252380D01*
X155357142Y-27204761D01*
X155309523Y-27157142D01*
X155261904Y-27061904D01*
X155261904Y-26966666D01*
X155309523Y-26871428D01*
X155357142Y-26823809D01*
X155452380Y-26776190D01*
X155642857Y-26728571D01*
X155738095Y-26680952D01*
X155785714Y-26633333D01*
X155833333Y-26538095D01*
X155833333Y-26442857D01*
X155785714Y-26347619D01*
X155738095Y-26300000D01*
X155642857Y-26252380D01*
X155404761Y-26252380D01*
X155261904Y-26300000D01*
X154309523Y-27252380D02*
X154880952Y-27252380D01*
X154595238Y-27252380D02*
X154595238Y-26252380D01*
X154690476Y-26395238D01*
X154785714Y-26490476D01*
X154880952Y-26538095D01*
X153976190Y-26252380D02*
X153309523Y-26252380D01*
X153738095Y-27252380D01*
D11*
%TO.C,LS3*%
X159950000Y-50000000D02*
G75*
G03*
X159950000Y-50000000I-4950000J0D01*
G01*
%TO.C,LS25*%
X119950000Y-30000000D02*
G75*
G03*
X119950000Y-30000000I-4950000J0D01*
G01*
%TO.C,LS18*%
X149950000Y-30000000D02*
G75*
G03*
X149950000Y-30000000I-4950000J0D01*
G01*
%TO.C,LS16*%
X129950000Y-40000000D02*
G75*
G03*
X129950000Y-40000000I-4950000J0D01*
G01*
%TO.C,LS23*%
X119950000Y-50000000D02*
G75*
G03*
X119950000Y-50000000I-4950000J0D01*
G01*
D12*
%TO.C,J3*%
X118175000Y-91180000D02*
X118081000Y-91274000D01*
X115959000Y-93395000D02*
X115831000Y-93524000D01*
X117969000Y-90975000D02*
X117841000Y-91104000D01*
X112340000Y-97560000D02*
X112340000Y-90440000D01*
X113900000Y-97560000D02*
X113900000Y-90440000D01*
X120060000Y-97560000D02*
X120060000Y-90440000D01*
X115719000Y-93225000D02*
X115626000Y-93319000D01*
X112100000Y-97800000D02*
X112100000Y-97400000D01*
X120060000Y-90440000D02*
X112340000Y-90440000D01*
X112800000Y-97560000D02*
X112800000Y-90440000D01*
X112740000Y-97800000D02*
X112100000Y-97800000D01*
X120060000Y-97560000D02*
X112340000Y-97560000D01*
X115219901Y-95721326D02*
G75*
G03*
X115460000Y-96616000I1680113J-28671D01*
G01*
X116010106Y-97175358D02*
G75*
G03*
X117766000Y-97190000I889894J1425356D01*
G01*
X118325358Y-96639894D02*
G75*
G03*
X118340000Y-94884000I-1425356J889894D01*
G01*
X117790193Y-94324496D02*
G75*
G03*
X116009000Y-94325000I-890193J-1425507D01*
G01*
X115475279Y-94859736D02*
G75*
G03*
X115220000Y-95750000I1424711J-890261D01*
G01*
X118580000Y-92250000D02*
G75*
G03*
X118580000Y-92250000I-1680000J0D01*
G01*
D11*
%TO.C,LS12*%
X139950000Y-40000000D02*
G75*
G03*
X139950000Y-40000000I-4950000J0D01*
G01*
%TO.C,LS9*%
X139950000Y-70000000D02*
G75*
G03*
X139950000Y-70000000I-4950000J0D01*
G01*
%TO.C,LS24*%
X119950000Y-40000000D02*
G75*
G03*
X119950000Y-40000000I-4950000J0D01*
G01*
%TO.C,LS10*%
X139950000Y-60000000D02*
G75*
G03*
X139950000Y-60000000I-4950000J0D01*
G01*
%TO.C,LS15*%
X129950000Y-50000000D02*
G75*
G03*
X129950000Y-50000000I-4950000J0D01*
G01*
%TO.C,LS22*%
X119950000Y-60000000D02*
G75*
G03*
X119950000Y-60000000I-4950000J0D01*
G01*
%TO.C,LS2*%
X159950000Y-60000000D02*
G75*
G03*
X159950000Y-60000000I-4950000J0D01*
G01*
%TO.C,LS4*%
X159950000Y-40000000D02*
G75*
G03*
X159950000Y-40000000I-4950000J0D01*
G01*
%TO.C,LS8*%
X149950000Y-40000000D02*
G75*
G03*
X149950000Y-40000000I-4950000J0D01*
G01*
%TO.C,LS1*%
X159950000Y-70000000D02*
G75*
G03*
X159950000Y-70000000I-4950000J0D01*
G01*
%TO.C,LS11*%
X139950000Y-50000000D02*
G75*
G03*
X139950000Y-50000000I-4950000J0D01*
G01*
%TO.C,LS20*%
X129950000Y-30000000D02*
G75*
G03*
X129950000Y-30000000I-4950000J0D01*
G01*
%TO.C,LS13*%
X129950000Y-70000000D02*
G75*
G03*
X129950000Y-70000000I-4950000J0D01*
G01*
%TO.C,LS6*%
X149950000Y-60000000D02*
G75*
G03*
X149950000Y-60000000I-4950000J0D01*
G01*
%TO.C,LS19*%
X139950000Y-30000000D02*
G75*
G03*
X139950000Y-30000000I-4950000J0D01*
G01*
%TO.C,LS5*%
X149950000Y-70000000D02*
G75*
G03*
X149950000Y-70000000I-4950000J0D01*
G01*
D12*
%TO.C,C59*%
X117195563Y-81990000D02*
X112740000Y-81990000D01*
X112740000Y-87510000D02*
X112740000Y-85810000D01*
X117195563Y-87510000D02*
X112740000Y-87510000D01*
X118260000Y-86445563D02*
X118260000Y-85810000D01*
X118260000Y-83054437D02*
X117195563Y-81990000D01*
X118260000Y-86445563D02*
X117195563Y-87510000D01*
X112740000Y-81990000D02*
X112740000Y-83690000D01*
X118260000Y-83054437D02*
X118260000Y-83690000D01*
D11*
%TO.C,LS21*%
X119950000Y-70000000D02*
G75*
G03*
X119950000Y-70000000I-4950000J0D01*
G01*
D12*
%TO.C,J2*%
X147310000Y-105990000D02*
X148070000Y-105990000D01*
X152390000Y-105990000D02*
X153150000Y-105990000D01*
X154930000Y-105990000D02*
X155690000Y-105990000D01*
X144770000Y-105990000D02*
X145530000Y-105990000D01*
X149850000Y-105990000D02*
X150610000Y-105990000D01*
X144950000Y-99990000D02*
X144950000Y-105990000D01*
X148070000Y-94392929D02*
X148070000Y-94847071D01*
X154930000Y-94392929D02*
X154930000Y-94847071D01*
X158230000Y-105990000D02*
X158230000Y-99990000D01*
X152390000Y-96932929D02*
X152390000Y-97330000D01*
X148070000Y-96932929D02*
X148070000Y-97330000D01*
X147310000Y-99990000D02*
X147310000Y-105990000D01*
X153150000Y-94392929D02*
X153150000Y-94847071D01*
X154930000Y-96932929D02*
X154930000Y-97330000D01*
X148070000Y-105990000D02*
X148070000Y-99990000D01*
X153150000Y-105990000D02*
X153150000Y-99990000D01*
X157470000Y-96932929D02*
X157470000Y-97330000D01*
X159180000Y-97330000D02*
X159180000Y-99990000D01*
X144770000Y-94460000D02*
X144770000Y-94847071D01*
X145190000Y-99990000D02*
X145190000Y-105990000D01*
X154930000Y-99990000D02*
X154930000Y-105990000D01*
X153150000Y-96932929D02*
X153150000Y-97330000D01*
X144770000Y-99990000D02*
X144770000Y-105990000D01*
X147310000Y-96932929D02*
X147310000Y-97330000D01*
X145430000Y-99990000D02*
X145430000Y-105990000D01*
X144770000Y-96932929D02*
X144770000Y-97330000D01*
X158230000Y-94392929D02*
X158230000Y-94847071D01*
X150610000Y-105990000D02*
X150610000Y-99990000D01*
X154040000Y-97330000D02*
X154040000Y-99990000D01*
X145530000Y-94460000D02*
X145530000Y-94847071D01*
X145310000Y-99990000D02*
X145310000Y-105990000D01*
X143820000Y-99990000D02*
X143820000Y-97330000D01*
X146420000Y-97330000D02*
X146420000Y-99990000D01*
X145530000Y-96932929D02*
X145530000Y-97330000D01*
X155690000Y-94392929D02*
X155690000Y-94847071D01*
X147310000Y-94392929D02*
X147310000Y-94847071D01*
X144830000Y-99990000D02*
X144830000Y-105990000D01*
X155690000Y-96932929D02*
X155690000Y-97330000D01*
X148960000Y-97330000D02*
X148960000Y-99990000D01*
X157470000Y-99990000D02*
X157470000Y-105990000D01*
X145530000Y-105990000D02*
X145530000Y-99990000D01*
X151500000Y-97330000D02*
X151500000Y-99990000D01*
X143880000Y-92080000D02*
X143880000Y-93350000D01*
X145070000Y-99990000D02*
X145070000Y-105990000D01*
X159180000Y-99990000D02*
X143820000Y-99990000D01*
X149850000Y-94392929D02*
X149850000Y-94847071D01*
X143820000Y-97330000D02*
X159180000Y-97330000D01*
X150610000Y-94392929D02*
X150610000Y-94847071D01*
X145150000Y-92080000D02*
X143880000Y-92080000D01*
X149850000Y-99990000D02*
X149850000Y-105990000D01*
X157470000Y-94392929D02*
X157470000Y-94847071D01*
X157470000Y-105990000D02*
X158230000Y-105990000D01*
X152390000Y-94392929D02*
X152390000Y-94847071D01*
X156580000Y-97330000D02*
X156580000Y-99990000D01*
X155690000Y-105990000D02*
X155690000Y-99990000D01*
X149850000Y-96932929D02*
X149850000Y-97330000D01*
X158230000Y-96932929D02*
X158230000Y-97330000D01*
X152390000Y-99990000D02*
X152390000Y-105990000D01*
X150610000Y-96932929D02*
X150610000Y-97330000D01*
D11*
%TO.C,LS14*%
X129950000Y-60000000D02*
G75*
G03*
X129950000Y-60000000I-4950000J0D01*
G01*
%TO.C,LS7*%
X149950000Y-50000000D02*
G75*
G03*
X149950000Y-50000000I-4950000J0D01*
G01*
%TO.C,LS17*%
X159950000Y-30000000D02*
G75*
G03*
X159950000Y-30000000I-4950000J0D01*
G01*
%TD*%
M02*
