%TF.GenerationSoftware,KiCad,Pcbnew,6.0.4-6f826c9f35~116~ubuntu20.04.1*%
%TF.CreationDate,2022-04-05T21:11:35+02:00*%
%TF.ProjectId,PhasedArray,50686173-6564-4417-9272-61792e6b6963,rev?*%
%TF.SameCoordinates,Original*%
%TF.FileFunction,Soldermask,Bot*%
%TF.FilePolarity,Negative*%
%FSLAX46Y46*%
G04 Gerber Fmt 4.6, Leading zero omitted, Abs format (unit mm)*
G04 Created by KiCad (PCBNEW 6.0.4-6f826c9f35~116~ubuntu20.04.1) date 2022-04-05 21:11:35*
%MOMM*%
%LPD*%
G01*
G04 APERTURE LIST*
G04 Aperture macros list*
%AMRoundRect*
0 Rectangle with rounded corners*
0 $1 Rounding radius*
0 $2 $3 $4 $5 $6 $7 $8 $9 X,Y pos of 4 corners*
0 Add a 4 corners polygon primitive as box body*
4,1,4,$2,$3,$4,$5,$6,$7,$8,$9,$2,$3,0*
0 Add four circle primitives for the rounded corners*
1,1,$1+$1,$2,$3*
1,1,$1+$1,$4,$5*
1,1,$1+$1,$6,$7*
1,1,$1+$1,$8,$9*
0 Add four rect primitives between the rounded corners*
20,1,$1+$1,$2,$3,$4,$5,0*
20,1,$1+$1,$4,$5,$6,$7,0*
20,1,$1+$1,$6,$7,$8,$9,0*
20,1,$1+$1,$8,$9,$2,$3,0*%
G04 Aperture macros list end*
%ADD10C,1.800000*%
%ADD11R,2.400000X2.400000*%
%ADD12C,2.400000*%
%ADD13RoundRect,0.250000X1.137500X0.550000X-1.137500X0.550000X-1.137500X-0.550000X1.137500X-0.550000X0*%
%ADD14R,1.700000X1.700000*%
%ADD15O,1.700000X1.700000*%
G04 APERTURE END LIST*
D10*
%TO.C,LS3*%
X157500000Y-50000000D03*
X152500000Y-50000000D03*
%TD*%
%TO.C,LS25*%
X117500000Y-30000000D03*
X112500000Y-30000000D03*
%TD*%
%TO.C,LS18*%
X147500000Y-30000000D03*
X142500000Y-30000000D03*
%TD*%
%TO.C,LS16*%
X127500000Y-40000000D03*
X122500000Y-40000000D03*
%TD*%
%TO.C,LS23*%
X117500000Y-50000000D03*
X112500000Y-50000000D03*
%TD*%
D11*
%TO.C,J3*%
X116900000Y-95750000D03*
D12*
X116900000Y-92250000D03*
%TD*%
D10*
%TO.C,LS12*%
X137500000Y-40000000D03*
X132500000Y-40000000D03*
%TD*%
%TO.C,LS9*%
X137500000Y-70000000D03*
X132500000Y-70000000D03*
%TD*%
%TO.C,LS24*%
X117500000Y-40000000D03*
X112500000Y-40000000D03*
%TD*%
%TO.C,LS10*%
X137500000Y-60000000D03*
X132500000Y-60000000D03*
%TD*%
%TO.C,LS15*%
X127500000Y-50000000D03*
X122500000Y-50000000D03*
%TD*%
%TO.C,LS22*%
X117500000Y-60000000D03*
X112500000Y-60000000D03*
%TD*%
%TO.C,LS2*%
X157500000Y-60000000D03*
X152500000Y-60000000D03*
%TD*%
%TO.C,LS4*%
X157500000Y-40000000D03*
X152500000Y-40000000D03*
%TD*%
%TO.C,LS8*%
X147500000Y-40000000D03*
X142500000Y-40000000D03*
%TD*%
%TO.C,LS1*%
X157500000Y-70000000D03*
X152500000Y-70000000D03*
%TD*%
%TO.C,LS11*%
X137500000Y-50000000D03*
X132500000Y-50000000D03*
%TD*%
%TO.C,LS20*%
X127500000Y-30000000D03*
X122500000Y-30000000D03*
%TD*%
%TO.C,LS13*%
X127500000Y-70000000D03*
X122500000Y-70000000D03*
%TD*%
%TO.C,LS6*%
X147500000Y-60000000D03*
X142500000Y-60000000D03*
%TD*%
%TO.C,LS19*%
X137500000Y-30000000D03*
X132500000Y-30000000D03*
%TD*%
%TO.C,LS5*%
X147500000Y-70000000D03*
X142500000Y-70000000D03*
%TD*%
D13*
%TO.C,C59*%
X117562500Y-84750000D03*
X113437500Y-84750000D03*
%TD*%
D10*
%TO.C,LS21*%
X117500000Y-70000000D03*
X112500000Y-70000000D03*
%TD*%
D14*
%TO.C,J2*%
X145150000Y-93350000D03*
D15*
X145150000Y-95890000D03*
X147690000Y-93350000D03*
X147690000Y-95890000D03*
X150230000Y-93350000D03*
X150230000Y-95890000D03*
X152770000Y-93350000D03*
X152770000Y-95890000D03*
X155310000Y-93350000D03*
X155310000Y-95890000D03*
X157850000Y-93350000D03*
X157850000Y-95890000D03*
%TD*%
D10*
%TO.C,LS14*%
X127500000Y-60000000D03*
X122500000Y-60000000D03*
%TD*%
%TO.C,LS7*%
X147500000Y-50000000D03*
X142500000Y-50000000D03*
%TD*%
%TO.C,LS17*%
X157500000Y-30000000D03*
X152500000Y-30000000D03*
%TD*%
M02*
